<?xml version="1.0" encoding="UTF-8" standalone="no"?>
<svg width="191px" height="25px" viewBox="0 0 191 25" version="1.1" xmlns="http://www.w3.org/2000/svg" xmlns:xlink="http://www.w3.org/1999/xlink" xmlns:sketch="http://www.bohemiancoding.com/sketch/ns">
    <!-- Generator: Sketch 3.3.3 (12072) - http://www.bohemiancoding.com/sketch -->
    <title>google-sheets-green</title>
    <desc>Created with Sketch.</desc>
    <defs></defs>
    <g id="Apps-Logos" stroke="none" stroke-width="1" fill="none" fill-rule="evenodd" sketch:type="MSPage">
        <g id="google-sheets-green" sketch:type="MSLayerGroup" fill="#00AB59">
            <path d="M10,8 L26,8 L26,12 L26,12 L10,12 L10,8 Z M8,8 L2,8 L2,12 L8,12 L8,8 Z M10,18 L26,18 L26,14 L26,14 L10,14 L10,18 Z M8,18 L2,18 L2,14 L8,14 L8,18 Z M10,2 L26,2 L26,6 L26,6 L10,6 L10,2 Z M8,2 L2,2 L2,6 L8,6 L8,2 Z M28,0 L28,20 L0,20 L0,0 L28,0 Z" id="Path" sketch:type="MSShapeGroup"></path>
            <path d="M52.1855469,16.668457 C51.5833303,17.5310916 50.7430881,18.1760233 49.6647949,18.6032715 C48.5865018,19.0305197 47.3312246,19.2441406 45.8989258,19.2441406 C44.4503508,19.2441406 43.1645564,18.9043817 42.0415039,18.2248535 C40.9184514,17.5453254 40.0497264,16.5789451 39.4353027,15.3256836 C38.8208791,14.0724221 38.5055339,12.6197999 38.4892578,10.9677734 L38.4892578,9.41748047 C38.4892578,6.74005823 39.1138447,4.66488367 40.3630371,3.19189453 C41.6122296,1.7189054 43.36799,0.982421875 45.6303711,0.982421875 C47.4858491,0.982421875 48.979161,1.45645685 50.1103516,2.40454102 C51.2415421,3.35262518 51.933267,4.69741968 52.1855469,6.43896484 L49.8417969,6.43896484 C49.4023416,4.08706506 48.002616,2.91113281 45.6425781,2.91113281 C44.0719323,2.91113281 42.8817586,3.46247821 42.0720215,4.56518555 C41.2622844,5.66789288 40.8533529,7.2649635 40.8452148,9.35644531 L40.8452148,10.809082 C40.8452148,12.8029071 41.3009395,14.3877708 42.2124023,15.5637207 C43.1238652,16.7396706 44.3567631,17.3276367 45.9111328,17.3276367 C46.7900435,17.3276367 47.5590787,17.2299814 48.2182617,17.034668 C48.8774447,16.8393545 49.4226866,16.5097679 49.8540039,16.0458984 L49.8540039,12.0541992 L45.7402344,12.0541992 L45.7402344,10.1499023 L52.1855469,10.1499023 L52.1855469,16.668457 Z M54.6396484,12.2739258 C54.6396484,10.979974 54.893959,9.81624866 55.4025879,8.78271484 C55.9112167,7.74918103 56.6192175,6.95166296 57.5266113,6.39013672 C58.4340052,5.82861047 59.469558,5.54785156 60.6333008,5.54785156 C62.4318124,5.54785156 63.8864691,6.17040393 64.9973145,7.41552734 C66.1081599,8.66065076 66.6635742,10.3167214 66.6635742,12.3837891 L66.6635742,12.5424805 C66.6635742,13.8282942 66.4174016,14.9818471 65.9250488,16.0031738 C65.4326961,17.0245005 64.7287643,17.8199841 63.8132324,18.3896484 C62.8977005,18.9593127 61.8458718,19.2441406 60.6577148,19.2441406 C58.8673413,19.2441406 57.4167536,18.6215883 56.3059082,17.3764648 C55.1950628,16.1313414 54.6396484,14.4834087 54.6396484,12.4326172 L54.6396484,12.2739258 Z M56.9101562,12.5424805 C56.9101562,14.0073315 57.2499152,15.1832638 57.9294434,16.0703125 C58.6089715,16.9573612 59.5183862,17.4008789 60.6577148,17.4008789 C61.8051815,17.4008789 62.7166307,16.9512578 63.3920898,16.052002 C64.067549,15.1527462 64.4052734,13.8934 64.4052734,12.2739258 C64.4052734,10.8253508 64.0614455,9.65145306 63.3737793,8.75219727 C62.6861131,7.85294147 61.7726294,7.40332031 60.6333008,7.40332031 C59.5183864,7.40332031 58.619144,7.84683801 57.9355469,8.73388672 C57.2519497,9.62093542 56.9101562,10.890454 56.9101562,12.5424805 L56.9101562,12.5424805 Z M68.3974609,12.2739258 C68.3974609,10.979974 68.6517715,9.81624866 69.1604004,8.78271484 C69.6690292,7.74918103 70.37703,6.95166296 71.2844238,6.39013672 C72.1918177,5.82861047 73.2273705,5.54785156 74.3911133,5.54785156 C76.1896249,5.54785156 77.6442816,6.17040393 78.755127,7.41552734 C79.8659724,8.66065076 80.4213867,10.3167214 80.4213867,12.3837891 L80.4213867,12.5424805 C80.4213867,13.8282942 80.1752141,14.9818471 79.6828613,16.0031738 C79.1905086,17.0245005 78.4865768,17.8199841 77.5710449,18.3896484 C76.655513,18.9593127 75.6036843,19.2441406 74.4155273,19.2441406 C72.6251538,19.2441406 71.1745661,18.6215883 70.0637207,17.3764648 C68.9528753,16.1313414 68.3974609,14.4834087 68.3974609,12.4326172 L68.3974609,12.2739258 Z M70.6679688,12.5424805 C70.6679688,14.0073315 71.0077277,15.1832638 71.6872559,16.0703125 C72.366784,16.9573612 73.2761987,17.4008789 74.4155273,17.4008789 C75.562994,17.4008789 76.4744432,16.9512578 77.1499023,16.052002 C77.8253615,15.1527462 78.1630859,13.8934 78.1630859,12.2739258 C78.1630859,10.8253508 77.819258,9.65145306 77.1315918,8.75219727 C76.4439256,7.85294147 75.5304419,7.40332031 74.3911133,7.40332031 C73.2761989,7.40332031 72.3769565,7.84683801 71.6933594,8.73388672 C71.0097622,9.62093542 70.6679688,10.890454 70.6679688,12.5424805 L70.6679688,12.5424805 Z M82.2163086,12.2861328 C82.2163086,10.2272032 82.6923781,8.58944293 83.6445312,7.37280273 C84.5966844,6.15616254 85.8580651,5.54785156 87.4287109,5.54785156 C89.0400471,5.54785156 90.2973588,6.11750732 91.2006836,7.25683594 L91.3105469,5.79199219 L93.3735352,5.79199219 L93.3735352,18.6826172 C93.3735352,20.3916101 92.8669484,21.7384391 91.8537598,22.7231445 C90.8405711,23.70785 89.4795007,24.2001953 87.7705078,24.2001953 C86.8183546,24.2001953 85.8865605,23.9967468 84.9750977,23.5898437 C84.0636348,23.1829407 83.3678409,22.6254918 82.8876953,21.9174805 L84.0595703,20.5625 C85.0279996,21.758795 86.2120698,22.3569336 87.6118164,22.3569336 C88.7104547,22.3569336 89.5669728,22.0476919 90.1813965,21.4291992 C90.7958201,20.8107065 91.1030273,19.939947 91.1030273,18.8168945 L91.1030273,17.6816406 C90.1997025,18.7233125 88.9668047,19.2441406 87.4042969,19.2441406 C85.8580652,19.2441406 84.606857,18.6215883 83.6506348,17.3764648 C82.6944125,16.1313414 82.2163086,14.4345811 82.2163086,12.2861328 L82.2163086,12.2861328 Z M84.4868164,12.5424805 C84.4868164,14.0317457 84.7919891,15.2015745 85.4023438,16.052002 C86.0126984,16.9024294 86.867182,17.3276367 87.9658203,17.3276367 C89.3899811,17.3276367 90.4357063,16.6806705 91.1030273,15.3867187 L91.1030273,9.35644531 C90.4112921,8.09504578 89.3737048,7.46435547 87.9902344,7.46435547 C86.8915961,7.46435547 86.0330435,7.89159729 85.4145508,8.74609375 C84.7960581,9.60059021 84.4868164,10.8660398 84.4868164,12.5424805 L84.4868164,12.5424805 Z M98.7329102,19 L96.4746094,19 L96.4746094,0.25 L98.7329102,0.25 L98.7329102,19 Z M107.327148,19.2441406 C105.536775,19.2441406 104.080084,18.6561745 102.957031,17.4802246 C101.833979,16.3042747 101.272461,14.7316179 101.272461,12.762207 L101.272461,12.347168 C101.272461,11.0369401 101.522703,9.86711127 102.023193,8.83764648 C102.523684,7.8081817 103.223547,7.0025257 104.122803,6.4206543 C105.022059,5.8387829 105.996577,5.54785156 107.046387,5.54785156 C108.763518,5.54785156 110.09814,6.11343835 111.050293,7.24462891 C112.002446,8.37581946 112.478516,9.99526941 112.478516,12.1030273 L112.478516,13.0429688 L103.530762,13.0429688 C103.563314,14.3450586 103.943763,15.3968873 104.672119,16.1984863 C105.400476,17.0000854 106.326166,17.4008789 107.449219,17.4008789 C108.246749,17.4008789 108.922198,17.2381201 109.475586,16.9125977 C110.028974,16.5870752 110.513182,16.1557644 110.928223,15.6186523 L112.307617,16.6928711 C111.200841,18.393726 109.540701,19.2441406 107.327148,19.2441406 L107.327148,19.2441406 Z M107.046387,7.40332031 C106.134924,7.40332031 105.369958,7.73494135 104.751465,8.39819336 C104.132972,9.06144537 103.750489,9.99120496 103.604004,11.1875 L110.220215,11.1875 L110.220215,11.0166016 C110.15511,9.86913489 109.845869,8.980065 109.29248,8.34936523 C108.739092,7.71866547 107.990402,7.40332031 107.046387,7.40332031 L107.046387,7.40332031 Z M125.870605,11.0776367 C123.860504,10.4998344 122.39771,9.78979913 121.482178,8.94750977 C120.566646,8.1052204 120.108887,7.06559863 120.108887,5.82861328 C120.108887,4.4288667 120.66837,3.27124481 121.787354,2.35571289 C122.906337,1.44018097 124.360994,0.982421875 126.151367,0.982421875 C127.372076,0.982421875 128.460526,1.21842212 129.416748,1.69042969 C130.37297,2.16243726 131.113523,2.81347241 131.638428,3.64355469 C132.163333,4.47363696 132.425781,5.38101721 132.425781,6.36572266 L130.069824,6.36572266 C130.069824,5.29149854 129.728031,4.44718732 129.044434,3.83276367 C128.360836,3.21834003 127.396491,2.91113281 126.151367,2.91113281 C124.995762,2.91113281 124.094486,3.16544342 123.44751,3.67407227 C122.800534,4.18270111 122.477051,4.88866736 122.477051,5.79199219 C122.477051,6.51627966 122.784258,7.12865961 123.398682,7.62915039 C124.013105,8.12964117 125.058831,8.58740027 126.535889,9.00244141 C128.012947,9.41748254 129.168534,9.87524164 130.002686,10.3757324 C130.836837,10.8762232 131.45532,11.4601204 131.858154,12.1274414 C132.260988,12.7947625 132.462402,13.5800736 132.462402,14.4833984 C132.462402,15.9238353 131.900885,17.0773882 130.777832,17.9440918 C129.65478,18.8107953 128.15333,19.2441406 126.273438,19.2441406 C125.052728,19.2441406 123.913417,19.0101749 122.855469,18.5422363 C121.797521,18.0742978 120.981692,17.4334351 120.407959,16.6196289 C119.834226,15.8058228 119.547363,14.8821666 119.547363,13.8486328 L121.90332,13.8486328 C121.90332,14.9228569 122.300045,15.7712371 123.093506,16.3937988 C123.886967,17.0163605 124.946933,17.3276367 126.273438,17.3276367 C127.510423,17.3276367 128.458493,17.0753606 129.117676,16.5708008 C129.776859,16.066241 130.106445,15.3785851 130.106445,14.5078125 C130.106445,13.6370399 129.801273,12.9636254 129.190918,12.4875488 C128.580563,12.0114722 127.473804,11.5415062 125.870605,11.0776367 L125.870605,11.0776367 Z M136.869629,7.39111328 C137.87061,6.16226599 139.172681,5.54785156 140.775879,5.54785156 C143.567234,5.54785156 144.975098,7.12254285 144.999512,10.2719727 L144.999512,19 L142.741211,19 L142.741211,10.2597656 C142.733073,9.30761243 142.515383,8.60368066 142.088135,8.14794922 C141.660887,7.69221777 140.99561,7.46435547 140.092285,7.46435547 C139.35986,7.46435547 138.716962,7.65966602 138.163574,8.05029297 C137.610186,8.44091992 137.178875,8.95361011 136.869629,9.58837891 L136.869629,19 L134.611328,19 L134.611328,0.25 L136.869629,0.25 L136.869629,7.39111328 Z M153.361816,19.2441406 C151.571443,19.2441406 150.114752,18.6561745 148.991699,17.4802246 C147.868647,16.3042747 147.307129,14.7316179 147.307129,12.762207 L147.307129,12.347168 C147.307129,11.0369401 147.557371,9.86711127 148.057861,8.83764648 C148.558352,7.8081817 149.258215,7.0025257 150.157471,6.4206543 C151.056727,5.8387829 152.031245,5.54785156 153.081055,5.54785156 C154.798186,5.54785156 156.132808,6.11343835 157.084961,7.24462891 C158.037114,8.37581946 158.513184,9.99526941 158.513184,12.1030273 L158.513184,13.0429688 L149.56543,13.0429688 C149.597982,14.3450586 149.978431,15.3968873 150.706787,16.1984863 C151.435144,17.0000854 152.360834,17.4008789 153.483887,17.4008789 C154.281417,17.4008789 154.956866,17.2381201 155.510254,16.9125977 C156.063642,16.5870752 156.547849,16.1557644 156.962891,15.6186523 L158.342285,16.6928711 C157.235509,18.393726 155.575369,19.2441406 153.361816,19.2441406 L153.361816,19.2441406 Z M153.081055,7.40332031 C152.169592,7.40332031 151.404625,7.73494135 150.786133,8.39819336 C150.16764,9.06144537 149.785157,9.99120496 149.638672,11.1875 L156.254883,11.1875 L156.254883,11.0166016 C156.189778,9.86913489 155.880537,8.980065 155.327148,8.34936523 C154.77376,7.71866547 154.02507,7.40332031 153.081055,7.40332031 L153.081055,7.40332031 Z M166.106445,19.2441406 C164.316072,19.2441406 162.859381,18.6561745 161.736328,17.4802246 C160.613276,16.3042747 160.051758,14.7316179 160.051758,12.762207 L160.051758,12.347168 C160.051758,11.0369401 160.301999,9.86711127 160.80249,8.83764648 C161.302981,7.8081817 162.002844,7.0025257 162.9021,6.4206543 C163.801355,5.8387829 164.775874,5.54785156 165.825684,5.54785156 C167.542815,5.54785156 168.877437,6.11343835 169.82959,7.24462891 C170.781743,8.37581946 171.257812,9.99526941 171.257812,12.1030273 L171.257812,13.0429688 L162.310059,13.0429688 C162.342611,14.3450586 162.72306,15.3968873 163.451416,16.1984863 C164.179773,17.0000854 165.105463,17.4008789 166.228516,17.4008789 C167.026046,17.4008789 167.701495,17.2381201 168.254883,16.9125977 C168.808271,16.5870752 169.292478,16.1557644 169.70752,15.6186523 L171.086914,16.6928711 C169.980138,18.393726 168.319998,19.2441406 166.106445,19.2441406 L166.106445,19.2441406 Z M165.825684,7.40332031 C164.914221,7.40332031 164.149254,7.73494135 163.530762,8.39819336 C162.912269,9.06144537 162.529786,9.99120496 162.383301,11.1875 L168.999512,11.1875 L168.999512,11.0166016 C168.934407,9.86913489 168.625166,8.980065 168.071777,8.34936523 C167.518389,7.71866547 166.769699,7.40332031 165.825684,7.40332031 L165.825684,7.40332031 Z M176.434082,2.59375 L176.434082,5.79199219 L178.899902,5.79199219 L178.899902,7.53759766 L176.434082,7.53759766 L176.434082,15.7285156 C176.434082,16.2574896 176.543944,16.6542142 176.763672,16.9187012 C176.9834,17.1831882 177.357745,17.3154297 177.886719,17.3154297 C178.147137,17.3154297 178.505206,17.2666021 178.960938,17.1689453 L178.960938,19 C178.366859,19.1627612 177.789065,19.2441406 177.227539,19.2441406 C176.218419,19.2441406 175.457522,18.9389679 174.944824,18.3286133 C174.432126,17.7182587 174.175781,16.8515681 174.175781,15.7285156 L174.175781,7.53759766 L171.770996,7.53759766 L171.770996,5.79199219 L174.175781,5.79199219 L174.175781,2.59375 L176.434082,2.59375 Z M188.727051,15.496582 C188.727051,14.8862274 188.497154,14.4121924 188.037354,14.0744629 C187.577553,13.7367333 186.775966,13.445802 185.632568,13.2016602 C184.489171,12.9575183 183.58179,12.6645525 182.9104,12.3227539 C182.23901,11.9809553 181.742596,11.5740583 181.421143,11.1020508 C181.099689,10.6300432 180.938965,10.0685254 180.938965,9.41748047 C180.938965,8.33511829 181.396724,7.4196001 182.312256,6.67089844 C183.227788,5.92219678 184.397617,5.54785156 185.821777,5.54785156 C187.319181,5.54785156 188.533768,5.93440369 189.465576,6.70751953 C190.397384,7.48063538 190.863281,8.46939502 190.863281,9.67382812 L188.592773,9.67382812 C188.592773,9.05533545 188.330325,8.52230042 187.80542,8.07470703 C187.280515,7.62711365 186.619307,7.40332031 185.821777,7.40332031 C184.999833,7.40332031 184.356936,7.58235498 183.893066,7.94042969 C183.429197,8.29850439 183.197266,8.76643591 183.197266,9.34423828 C183.197266,9.8894884 183.412921,10.3004543 183.844238,10.5771484 C184.275556,10.8538425 185.054763,11.1183256 186.181885,11.3706055 C187.309006,11.6228854 188.22249,11.9239891 188.922363,12.2739258 C189.622237,12.6238624 190.14103,13.0450008 190.47876,13.5373535 C190.816489,14.0297062 190.985352,14.6298793 190.985352,15.3378906 C190.985352,16.5179095 190.513351,17.463945 189.569336,18.1760254 C188.625321,18.8881058 187.400561,19.2441406 185.89502,19.2441406 C184.837072,19.2441406 183.901208,19.056968 183.087402,18.6826172 C182.273596,18.3082664 181.636802,17.7854037 181.177002,17.1140137 C180.717201,16.4426236 180.487305,15.7163125 180.487305,14.9350586 L182.745605,14.9350586 C182.786296,15.6918983 183.089434,16.2920714 183.655029,16.7355957 C184.220625,17.1791201 184.967281,17.4008789 185.89502,17.4008789 C186.749516,17.4008789 187.435137,17.2279477 187.951904,16.8820801 C188.468671,16.5362125 188.727051,16.0743844 188.727051,15.496582 L188.727051,15.496582 Z" id="Google-Sheets" sketch:type="MSShapeGroup"></path>
        </g>
    </g>
</svg>