<?xml version="1.0" encoding="UTF-8" standalone="no"?>
<svg width="48px" height="64px" viewBox="0 0 48 64" version="1.1" xmlns="http://www.w3.org/2000/svg" xmlns:xlink="http://www.w3.org/1999/xlink" xmlns:sketch="http://www.bohemiancoding.com/sketch/ns">
    <!-- Generator: Sketch 3.4.4 (17249) - http://www.bohemiancoding.com/sketch -->
    <title>google-sheets</title>
    <desc>Created with Sketch.</desc>
    <defs>
        <linearGradient x1="50%" y1="0%" x2="50%" y2="100%" id="linearGradient-1">
            <stop stop-color="#15A663" offset="0%"></stop>
            <stop stop-color="#009E56" offset="100%"></stop>
        </linearGradient>
        <linearGradient x1="50%" y1="0%" x2="50%" y2="100%" id="linearGradient-2">
            <stop stop-color="#07884F" offset="0%"></stop>
            <stop stop-color="#00A058" offset="100%"></stop>
        </linearGradient>
        <linearGradient x1="50%" y1="0%" x2="50%" y2="100%" id="linearGradient-3">
            <stop stop-color="#8DD2B1" offset="0%"></stop>
            <stop stop-color="#8CD2B0" offset="100%"></stop>
        </linearGradient>
    </defs>
    <g id="Page-34" stroke="none" stroke-width="1" fill="none" fill-rule="evenodd" sketch:type="MSPage">
        <g id="Index" sketch:type="MSArtboardGroup" transform="translate(-182.000000, -404.000000)">
            <g id="google-sheets" sketch:type="MSLayerGroup" transform="translate(182.000000, 404.000000)">
                <g id="Group" sketch:type="MSShapeGroup">
                    <path d="M4,0 L32,0 L48,16 L48,60 C48,62.1709205 46.1769562,64 44,64 L4,64 C1.82529894,64 0,62.1706979 0,60 L0,4 C0,1.82917062 1.82525395,0 4,0 Z" id="Rectangle-3" fill="url(#linearGradient-1)"></path>
                    <path d="M33,15 L48,30 L48,16 L33,15 Z" id="Path-274" fill="url(#linearGradient-2)"></path>
                    <path d="M32,0 L48,16 L36,16 C33.8168998,16 32,14.1840602 32,12 L32,0 L32,0 Z" id="Rectangle-4" fill="url(#linearGradient-3)"></path>
                    <path d="M11,30 L37,30 L37,50 L11,50 L11,30 Z M13,32 L23,32 L23,36 L13,36 L13,32 Z M25,32 L35,32 L35,36 L25,36 L25,32 Z M13,38 L23,38 L23,42 L13,42 L13,38 Z M25,38 L35,38 L35,42 L25,42 L25,38 Z M13,44 L23,44 L23,48 L13,48 L13,44 Z M25,44 L35,44 L35,48 L25,48 L25,44 Z" id="Rectangle-5" fill="#FFFFFF"></path>
                </g>
            </g>
        </g>
    </g>
</svg>