<?xml version="1.0" encoding="UTF-8" standalone="no"?>
<svg width="76px" height="40px" viewBox="0 0 76 40" version="1.1" xmlns="http://www.w3.org/2000/svg" xmlns:xlink="http://www.w3.org/1999/xlink" xmlns:sketch="http://www.bohemiancoding.com/sketch/ns">
    <!-- Generator: Sketch 3.3.3 (12072) - http://www.bohemiancoding.com/sketch -->
    <title>box-0275C9</title>
    <desc>Created with Sketch.</desc>
    <defs></defs>
    <g id="Choose-source" stroke="none" stroke-width="1" fill="none" fill-rule="evenodd" sketch:type="MSPage">
        <g id="Index" sketch:type="MSArtboardGroup" transform="translate(-830.000000, -754.000000)" fill="#FFFFFF">
            <g id="box-0275C9" sketch:type="MSLayerGroup" transform="translate(830.000000, 754.000000)">
                <path d="M38.94,34.365082 C34.2760656,34.365082 30.4944262,30.5868852 30.4944262,25.9229508 C30.4944262,21.2629508 34.2760656,17.4855738 38.94,17.4855738 C43.6019672,17.4855738 47.3816393,21.2629508 47.3816393,25.9229508 C47.3816393,30.5868852 43.6019672,34.365082 38.94,34.365082 M14.0722951,34.365082 C9.40934426,34.365082 5.62508197,30.5878689 5.62508197,25.9247541 C5.62508197,21.2629508 9.40934426,17.4855738 14.0722951,17.4855738 C18.7347541,17.4855738 22.5111475,21.2629508 22.5111475,25.9229508 C22.5111475,30.5868852 18.7347541,34.365082 14.0722951,34.365082 M38.94,11.8509836 C33.5542623,11.8509836 28.867541,14.8803279 26.5072131,19.3281967 C24.1462295,14.8803279 19.4618033,11.8509836 14.0722951,11.8509836 C10.9077049,11.8509836 7.98409836,12.8977049 5.62508197,14.6659016 L5.62508197,2.80852459 C5.59721311,1.27639344 4.34770492,0.0498360656 2.81016393,0.0498360656 C1.27262295,0.0498360656 0.0352459016,1.27639344 0,2.80852459 L0,26.157541 L0.0031147541,26.157541 C0.12704918,33.8240984 6.37442623,40 14.0722951,40 C19.4618033,40 24.1462295,36.9678689 26.5072131,32.5242623 C28.867541,36.9678689 33.5542623,40 38.94,40 C46.7103279,40 53.0137705,33.6990164 53.0137705,25.9229508 C53.0137705,18.1504918 46.7103279,11.8509836 38.94,11.8509836" id="Fill-1" sketch:type="MSShapeGroup"></path>
                <path d="M74.852459,35.2881967 L67.2022951,25.9045902 L74.8618033,16.5027869 C75.83,15.262459 75.552459,13.5308197 74.2155738,12.6108197 C72.8770492,11.6827869 70.9991803,11.9206557 69.9634426,13.1240984 L69.9634426,13.1221311 L63.3739344,21.1981967 L56.79,13.1221311 L56.79,13.1240984 C55.765082,11.9206557 53.8754098,11.6827869 52.5409836,12.6108197 C51.2065574,13.5316393 50.9277049,15.262459 51.9008197,16.5027869 L51.8981967,16.5027869 L59.5437705,25.9045902 L51.8981967,35.2881967 L51.9008197,35.2881967 C50.9277049,36.5321311 51.2065574,38.2586885 52.5409836,39.182459 C53.8754098,40.1065574 55.765082,39.8713115 56.79,38.6660656 L63.3739344,30.6011475 L69.9540984,38.6660656 C70.9908197,39.8713115 72.8683607,40.1065574 74.2067213,39.182459 C75.5437705,38.2586885 75.822623,36.5321311 74.852459,35.2881967" id="Fill-3" sketch:type="MSShapeGroup"></path>
            </g>
        </g>
    </g>
</svg>