<?xml version="1.0" encoding="UTF-8" standalone="no"?>
<svg width="75px" height="40px" viewBox="0 0 75 40" version="1.1" xmlns="http://www.w3.org/2000/svg" xmlns:xlink="http://www.w3.org/1999/xlink" xmlns:sketch="http://www.bohemiancoding.com/sketch/ns">
    <!-- Generator: Sketch 3.4.4 (17249) - http://www.bohemiancoding.com/sketch -->
    <title>box</title>
    <desc>Created with Sketch.</desc>
    <defs></defs>
    <g id="Page-34" stroke="none" stroke-width="1" fill="none" fill-rule="evenodd" sketch:type="MSPage">
        <g id="Index" sketch:type="MSArtboardGroup" transform="translate(-779.000000, -415.000000)" fill="#103158">
            <g id="box" sketch:type="MSLayerGroup" transform="translate(779.000000, 415.000000)">
                <path d="M39.4705882,34 C34.5829612,34 31,30.4186665 31,25.5294118 C31,21.5805565 34.5829612,18 39.4705882,18 C43.4189027,18 47,21.5805565 47,25.5294118 C47,30.4186665 43.4189027,34 39.4705882,34 M15.4705882,34 C10.58569,34 7,30.4195989 7,25.5294118 C7,21.5805565 10.58569,18 15.4705882,18 C19.4217659,18 23,21.5805565 23,25.5294118 C23,30.4186665 19.4217659,34 15.4705882,34 M39,12 C33.5455465,11.815869 28.8600426,14.8489922 27,19 C24.1399574,14.8489922 19.456748,11.815869 14,12 C10.9048716,11.815869 7.98202447,12.863896 6,15 L6,3 C5.59575922,1.22808745 4.34657559,0 3,0 C1.27229238,0 0.0352367464,1.22808745 0,3 L0,26 L0,26 C0.127016179,33.8163942 6.37277045,40 14,40 C19.456748,40 24.1399574,36.9640864 27,33 C28.8600426,36.9640864 33.5455465,40 39,40 C46.6981947,40 53,33.6911562 53,26 C53,18.1232355 46.6981947,11.815869 39,12 L39,12 Z M74,35 L67,26 L74,17 C75.3904942,15.253373 75.1142901,13.5032345 74,13 C72.4517673,11.6354591 70.5829439,11.8758692 70,13 L70,13 L63,21 L56,13 L56,13 C55.4222262,11.8758692 53.5416563,11.6354591 52,13 C50.8856594,13.5040629 50.6081501,15.253373 52,17 L52,17 L59,26 L52,35 L52,35 C50.6081501,36.7502695 50.8856594,38.4952717 52,39 C53.5416563,40.3628814 55.4222262,40.1251223 56,39 L63,31 L70,39 C70.5746236,40.1251223 72.4431207,40.3628814 74,39 C75.1056434,38.4952717 75.3831527,36.7502695 74,35 L74,35 Z" id="Fill-1" sketch:type="MSShapeGroup"></path>
            </g>
        </g>
    </g>
</svg>