<svg xmlns="http://www.w3.org/2000/svg" xmlns:xlink="http://www.w3.org/1999/xlink" preserveAspectRatio="xMidYMid" width="74" height="40.03" viewBox="0 0 74 40.03">
  <defs>
    <style>
      .cls-1 {
        fill: #919191;
        fill-rule: evenodd;
      }
    </style>
  </defs>
  <path d="M73.297,16.458 C70.982,19.476 68.680,22.503 66.374,25.527 C66.290,25.636 66.213,25.750 66.108,25.897 C67.379,27.565 68.648,29.230 69.918,30.895 C71.035,32.360 72.155,33.822 73.270,35.289 C74.351,36.711 74.190,38.376 72.881,39.387 C71.570,40.399 69.800,40.142 68.722,38.746 C66.773,36.222 64.846,33.681 62.909,31.148 C62.790,30.993 62.667,30.841 62.496,30.625 C62.086,31.153 61.701,31.642 61.323,32.137 C59.652,34.325 57.992,36.521 56.311,38.702 C55.059,40.328 52.842,40.430 51.638,38.938 C50.797,37.895 50.790,36.518 51.653,35.382 C53.990,32.306 56.338,29.239 58.681,26.169 C58.740,26.091 58.794,26.009 58.887,25.877 C57.515,24.079 56.170,22.317 54.825,20.555 C53.768,19.169 52.694,17.796 51.654,16.397 C50.262,14.526 51.188,12.181 53.489,11.800 C54.675,11.603 55.614,12.120 56.328,13.055 C57.229,14.235 58.127,15.417 59.029,16.596 C60.110,18.012 61.193,19.426 62.275,20.841 C62.334,20.917 62.396,20.991 62.501,21.120 C63.264,20.127 64.010,19.160 64.753,18.190 C66.125,16.398 67.470,14.586 68.876,12.822 C69.598,11.917 70.592,11.587 71.754,11.853 C72.886,12.112 73.615,12.808 73.907,13.907 C74.157,14.844 73.887,15.689 73.297,16.458 ZM43.514,39.462 C37.271,41.054 30.632,38.730 27.086,32.589 C26.546,33.333 26.055,34.127 25.449,34.824 C22.438,38.293 18.632,39.952 13.994,39.926 C7.947,39.894 1.732,35.554 0.311,28.739 C0.122,27.836 0.018,26.899 0.015,25.977 C-0.008,18.247 0.002,10.516 0.003,2.786 C0.003,1.282 1.208,0.025 2.667,-0.001 C4.445,-0.034 5.732,1.073 5.743,2.730 C5.765,6.426 5.747,10.124 5.746,13.821 C5.746,14.032 5.746,14.242 5.746,14.550 C9.363,12.096 13.237,11.194 17.454,12.110 C21.686,13.030 24.847,15.436 27.063,19.187 C28.860,16.077 31.402,13.866 34.771,12.648 C38.147,11.428 41.539,11.455 44.898,12.707 C50.557,14.816 54.273,20.396 54.130,26.066 C53.968,32.527 49.511,37.933 43.514,39.462 ZM14.308,17.440 C9.640,17.458 5.711,21.260 5.757,25.801 C5.810,30.860 9.947,34.435 14.637,34.289 C19.224,34.146 22.966,30.492 22.962,25.800 C22.944,21.160 19.074,17.422 14.308,17.440 ZM40.034,17.442 C35.145,17.353 31.228,21.020 31.152,25.757 C31.147,30.404 34.745,34.060 39.319,34.282 C44.168,34.517 48.281,30.859 48.362,25.845 C48.433,21.390 44.573,17.524 40.034,17.442 Z" class="cls-1"/>
</svg>
