<?xml version="1.0" encoding="UTF-8" standalone="no"?>
<svg width="166px" height="28px" viewBox="0 0 166 28" version="1.1" xmlns="http://www.w3.org/2000/svg" xmlns:xlink="http://www.w3.org/1999/xlink" xmlns:sketch="http://www.bohemiancoding.com/sketch/ns">
    <!-- Generator: Sketch 3.3.3 (12072) - http://www.bohemiancoding.com/sketch -->
    <title>onedrive-blue</title>
    <desc>Created with Sketch.</desc>
    <defs></defs>
    <g id="Apps-Logos" stroke="none" stroke-width="1" fill="none" fill-rule="evenodd" sketch:type="MSPage">
        <g id="onedrive-blue" sketch:type="MSLayerGroup" fill="#094AB1">
            <path d="M15.3219032,27.6823108 C12.4762951,26.9719569 10.8909582,24.7121169 10.8859443,21.3590246 C10.8843428,20.2870092 10.9619778,19.7733477 11.2298168,19.0838369 C11.8863669,17.3936615 13.6246132,16.11854 15.9119423,15.6491846 C17.0501048,15.4156338 17.4007529,15.1648738 17.4007529,14.5844723 C17.4007529,14.4023523 17.5362169,13.8599877 17.7017703,13.3792154 C18.4539136,11.1951169 19.8464965,9.37437692 21.3345525,8.62956 C22.8919343,7.85003385 23.6782169,7.67423846 25.5621629,7.68434462 C28.2377503,7.69869846 29.5726028,8.27854923 31.4395946,10.2374446 L32.466377,11.3147769 L33.3862295,10.9967431 C37.8381709,9.45748154 42.2763149,12.0777169 42.6340618,16.45658 L42.7319217,17.6544708 L43.6086112,17.9682862 C46.1123008,18.8645 47.2891145,20.74642 47.0757783,23.5128708 C46.9362644,25.3220215 46.0896028,26.7664277 44.7483444,27.4834723 L44.1178061,27.8205631 L30.1048345,27.8475385 C19.3365778,27.8682677 15.9135592,27.8300092 15.3219032,27.6823108 L15.3219032,27.6823108 Z" id="path4256" sketch:type="MSShapeGroup"></path>
            <path d="M4.81699816,25.7483123 C3.15576163,25.3538754 1.39551488,23.8879708 0.570092968,22.2115585 C0.101869796,21.2606092 0.0770005937,21.1207446 0.0770005937,19.4384092 C0.0770005937,17.8382538 0.116959165,17.5815431 0.4897,16.7870138 C1.2754744,15.1120677 2.7810097,13.9018185 4.67000655,13.4266046 C5.06867141,13.3263123 5.44328167,13.1662323 5.50247345,13.0708708 C5.56166523,12.9755077 5.62741848,12.4560215 5.64858887,11.9164554 C5.78007996,8.56539231 7.98083651,5.61271385 11.0538199,4.66444462 C12.7140155,4.15213846 14.7997423,4.27815846 16.6055082,4.99988 C17.1782236,5.22878462 17.113733,5.27786154 18.3246861,3.69149077 C19.0408267,2.75332308 20.4878755,1.58653538 21.6723579,0.992175385 C22.9507119,0.350718462 24.280221,0.0551907692 25.8701406,0.0590846154 C30.3138436,0.0699769231 34.1435776,2.84688154 35.5597362,7.08493846 C36.0122017,8.43902462 35.9896423,8.81825385 35.4559477,8.82943077 C35.2230395,8.83430769 34.555698,8.96245231 33.9729579,9.11419538 L32.9134375,9.39009231 L31.9466492,8.42421385 C29.220769,5.70085846 24.7720922,5.11222154 20.9902642,6.97449538 C19.4794024,7.71848462 18.265308,8.78658308 17.3482427,10.1785385 C16.6944522,11.1709 15.8608642,13.0221785 15.8608642,13.4818092 C15.8608642,13.8078892 15.5965885,13.9708277 14.4679425,14.3406231 C10.9736102,15.4855215 8.93405532,18.12958 8.93546432,21.5128708 C8.93592629,22.7442846 9.25337896,24.2510615 9.69405045,25.1140492 C9.86017056,25.4393692 9.95285954,25.7487292 9.90002596,25.8015138 C9.76490842,25.9365062 5.41799054,25.8910092 4.81699816,25.7483123 L4.81699816,25.7483123 Z" id="path4248" sketch:type="MSShapeGroup"></path>
            <g id="text3027" transform="translate(53.588126, 4.307692)" sketch:type="MSShapeGroup">
                <path d="M9.19027278,20.6325308 C6.43831616,20.6325308 4.23450293,19.7265815 2.57882694,17.9146815 C0.923143247,16.1027877 0.0953037106,13.7455185 0.0953052505,10.8428677 C0.0953037106,7.72388923 0.938933265,5.23591077 2.62619699,3.37892462 C4.31345148,1.52197231 6.60974889,0.593487692 9.51509382,0.593467692 C12.1948472,0.593487692 14.3535463,1.49492923 15.9911975,3.29779538 C17.6288141,5.10069538 18.4476311,7.45796462 18.4476507,10.3696108 C18.4476311,13.53368 17.608513,16.03518 15.9302936,17.8741169 C14.2520401,19.71306 12.0053688,20.6325308 9.19027278,20.6325308 L9.19027278,20.6325308 Z M9.3526833,2.64875692 C7.31352575,2.64877385 5.65784514,3.38344923 4.38563993,4.85278308 C3.11342239,6.32214769 2.47731748,8.25123231 2.47732056,10.6400431 C2.47731748,13.0288723 3.09763237,14.9511954 4.33826987,16.40702 C5.57889659,17.8628523 7.19622935,18.5907662 9.19027278,18.5907646 C11.3196379,18.5907662 12.9978742,17.8966554 14.2249872,16.5084323 C15.4520693,15.1202169 16.0656181,13.1776108 16.0656354,10.6806077 C16.0656181,8.12052308 15.470115,6.14186 14.279124,4.74461077 C13.088102,3.34739077 11.4459567,2.64877385 9.3526833,2.64875692 L9.3526833,2.64875692 Z" id="path3010"></path>
                <path d="M33.4705882,20.3080123 L31.2509829,20.3080123 L31.2509829,12.4113769 C31.2509715,9.47268615 30.177261,8.00333692 28.0298487,8.00332462 C26.9200389,8.00333692 26.0019714,8.42025231 25.2756435,9.25407538 C24.5493044,10.08792 24.1861376,11.1403523 24.1861421,12.4113769 L24.1861421,20.3080123 L21.966537,20.3080123 L21.966537,6.46185846 L24.1861421,6.46185846 L24.1861421,8.76053538 L24.2402789,8.76053538 C25.2869164,7.01175077 26.8027428,6.13735231 28.7877627,6.13733846 C30.30358,6.13735231 31.4630066,6.62638462 32.2660463,7.60443538 C33.0690608,8.58251231 33.4705745,9.99552154 33.4705882,11.8434677 L33.4705882,20.3080123 Z" id="path3012"></path>
                <path d="M48.8048115,13.9393215 L39.0196011,13.9393215 C39.0556887,15.4807923 39.4707362,16.6706954 40.2647455,17.5090338 C41.0587449,18.3473769 42.1505013,18.7665462 43.5400168,18.7665446 C45.1009481,18.7665462 46.53557,18.2527246 47.8438856,17.2250785 L47.8438856,19.3074108 C46.6257982,20.1908246 45.0152317,20.6325308 43.012183,20.6325308 C41.0542335,20.6325308 39.5158502,20.0037754 38.3970288,18.7462631 C37.2782016,17.4887538 36.7187896,15.7196754 36.7187909,13.4390215 C36.7187896,11.2845831 37.3300826,9.52902615 38.552672,8.17234462 C39.7752551,6.81568769 41.2933371,6.13735231 43.1069231,6.13733846 C44.9204931,6.13735231 46.323535,6.72328923 47.3160518,7.89515077 C48.3085454,9.06703692 48.8047977,10.6941385 48.8048115,12.7764615 L48.8048115,13.9393215 Z M46.5310704,12.0598138 C46.5220313,10.7797754 46.2130064,9.78368308 45.6039789,9.07153385 C44.9949314,8.35940615 44.1490459,8.00333692 43.0663209,8.00332462 C42.0196709,8.00333692 41.1309272,8.37743385 40.4000872,9.12562 C39.6692374,9.87382769 39.2180986,10.8518908 39.0466694,12.0598138 L46.5310704,12.0598138 Z" id="path3014"></path>
                <path d="M52.4725738,20.3080123 L52.4725738,0.917987692 L57.8321086,0.917987692 C64.6713641,0.918006154 68.0909964,4.06854462 68.0910149,10.3696108 C68.0909964,13.3624062 67.1413501,15.767 65.2420715,17.5834015 C63.3427604,19.3998092 60.8005936,20.3080123 57.6155618,20.3080123 L52.4725738,20.3080123 Z M54.7463165,2.97327538 L54.7463165,18.2527231 L57.64263,18.2527231 C60.187045,18.2527246 62.1675451,17.5721369 63.5841334,16.2109569 C65.0006955,14.8497846 65.7089842,12.9207 65.7089996,10.4236969 C65.7089842,5.45676462 63.065311,2.97329385 57.7779723,2.97327538 L54.7463165,2.97327538 Z" id="path3016"></path>
                <path d="M78.8371527,8.70644923 C78.4491639,8.40898462 77.8897516,8.26024769 77.1589143,8.26023538 C76.2115147,8.26024769 75.4197671,8.70646 74.7836668,9.59887692 C74.1475557,10.4913154 73.8295025,11.70826 73.8295071,13.2497185 L73.8295071,20.3080123 L71.6099008,20.3080123 L71.6099008,6.46185846 L73.8295071,6.46185846 L73.8295071,9.31492308 L73.8836434,9.31492308 C74.1994361,8.34137692 74.6821542,7.58191231 75.3318009,7.03652769 C75.9814338,6.49116769 76.7077685,6.21848308 77.5108035,6.21846769 C78.0882525,6.21848308 78.5303684,6.28158308 78.8371527,6.40777077 L78.8371527,8.70644923 Z" id="path3018"></path>
                <path d="M82.3831067,2.94623231 C81.9861019,2.94625077 81.6477468,2.81103385 81.3680429,2.54058308 C81.088336,2.27016923 80.9484818,1.92762154 80.9484848,1.51294 C80.9484818,1.09829538 81.088336,0.753493846 81.3680429,0.478533846 C81.6477468,0.203613846 81.9861019,0.0661446154 82.3831067,0.0661246154 C82.7891292,0.0661446154 83.134249,0.203613846 83.4184709,0.478533846 C83.7026851,0.753493846 83.8447937,1.09829538 83.8447983,1.51294 C83.8447937,1.90959231 83.7026851,2.24763231 83.4184709,2.52706154 C83.134249,2.80652615 82.7891292,2.94625077 82.3831067,2.94623231 L82.3831067,2.94623231 Z M83.465841,20.3080123 L81.2462362,20.3080123 L81.2462362,6.46185846 L83.465841,6.46185846 L83.465841,20.3080123 Z" id="path3020"></path>
                <path d="M98.8542011,6.46185846 L93.3322573,20.3080123 L91.1532548,20.3080123 L85.9019926,6.46185846 L88.3381458,6.46185846 L91.8570316,16.5219538 C92.1186864,17.26114 92.2810954,17.9056708 92.3442617,18.4555477 L92.398398,18.4555477 C92.4886201,17.76144 92.6329846,17.1349385 92.8314917,16.57604 L96.5127881,6.46185846 L98.8542011,6.46185846 Z" id="path3022"></path>
                <path d="M112.361312,13.9393215 L102.5761,13.9393215 C102.612189,15.4807923 103.027236,16.6706954 103.821244,17.5090338 C104.615245,18.3473769 105.707,18.7665462 107.096515,18.7665446 C108.657448,18.7665462 110.09207,18.2527246 111.400384,17.2250785 L111.400384,19.3074108 C110.182297,20.1908246 108.571732,20.6325308 106.568683,20.6325308 C104.610733,20.6325308 103.072349,20.0037754 101.953529,18.7462631 C100.834701,17.4887538 100.275289,15.7196754 100.27529,13.4390215 C100.275289,11.2845831 100.886582,9.52902615 102.109172,8.17234462 C103.331754,6.81568769 104.849836,6.13735231 106.663422,6.13733846 C108.476993,6.13735231 109.880034,6.72328923 110.872552,7.89515077 C111.865046,9.06703692 112.361298,10.6941385 112.361312,12.7764615 L112.361312,13.9393215 Z M110.087569,12.0598138 C110.07853,10.7797754 109.769505,9.78368308 109.160477,9.07153385 C108.55143,8.35940615 107.705544,8.00333692 106.622819,8.00332462 C105.576169,8.00333692 104.687426,8.37743385 103.956587,9.12562 C103.225737,9.87382769 102.774598,10.8518908 102.603169,12.0598138 L110.087569,12.0598138 Z" id="path3024"></path>
            </g>
        </g>
    </g>
</svg>