<?xml version="1.0" encoding="UTF-8" standalone="no"?>
<svg width="70px" height="42px" viewBox="0 0 70 42" version="1.1" xmlns="http://www.w3.org/2000/svg" xmlns:xlink="http://www.w3.org/1999/xlink" xmlns:sketch="http://www.bohemiancoding.com/sketch/ns">
    <!-- Generator: Sketch 3.4.4 (17249) - http://www.bohemiancoding.com/sketch -->
    <title>one-drive</title>
    <desc>Created with Sketch.</desc>
    <defs></defs>
    <g id="Page-34" stroke="none" stroke-width="1" fill="none" fill-rule="evenodd" sketch:type="MSPage">
        <g id="Index" sketch:type="MSArtboardGroup" transform="translate(-986.000000, -417.000000)" fill="#094AB1">
            <g id="one-drive" sketch:type="MSLayerGroup" transform="translate(986.000000, 417.000000)">
                <path d="M23,41 C18.3714366,39.6898612 16.0075123,36.3284738 16,31 C15.997648,29.74637 16.113411,28.9823268 17,28 C17.491784,25.4426748 20.0837142,23.5460017 23,23 C25.1915259,22.5004676 25.7143835,22.1274759 26,21 C25.7143835,20.9932671 25.9163763,20.1865297 26,19 C27.2847701,16.2226813 29.3612754,13.5144309 32,12 C33.9023822,11.2470546 35.0748222,10.9855686 38,11 C41.8736238,11.0219515 43.8640462,11.8844476 47,15 L48,16 L50,16 C56.1889824,13.6380444 62.8067782,17.5355001 63,24 L63,26 L65,26 C68.5266852,27.6304659 70.2814532,30.4297182 70,35 C69.7553121,37.2356733 68.4928399,39.3841478 66,40 L66,41 L45,41 C28.6009265,41.0230741 23.4968024,40.9661668 23,41 L23,41 L23,41 Z M7,38 C4.55766603,37.2224312 1.9518721,35.0652893 1,33 C0.0368153023,31.1990135 0,30.9931967 0,29 C0,26.16287 0.0591529584,25.785109 1,25 C1.77416931,22.1511695 4.00289932,20.3702356 7,20 C7.38945577,19.5233535 7.94401277,19.2877889 8,19 C8.11926272,19.0071294 8.21660101,18.2426831 8,17 C8.44259454,12.5174544 11.7005003,8.17246075 16,7 C18.7072958,6.02316109 21.7949165,6.20860495 24,7 C25.3159184,7.60749233 25.2204493,7.67971114 27,5 C28.0732363,3.96474394 30.2153854,2.24776554 32,1 C33.8612629,0.429207647 35.8294113,-0.00567409457 38,0 C44.7613279,0.0160843684 50.4307021,4.10241925 53,10 C53.1969333,12.3314989 53.1635373,12.8895511 52,13 C52.0286914,12.913175 51.0407875,13.1017453 50,13 L49,14 L47,12 C43.1431871,8.30216935 36.5575564,7.43596474 31,10 C28.722485,11.2711932 26.9251916,12.8429462 26,15 C24.5997639,16.3515713 23.365756,19.0758074 23,20 C23.365756,20.2320147 22.9745335,20.4717857 21,21 C16.1308743,22.700723 13.1116046,26.591569 13,32 C13.1143743,33.3823058 13.5843177,35.599593 14,37 C14.482586,37.348239 14.6197988,37.8034756 15,38 C14.341564,38.0797975 7.90657286,38.0128468 7,38 L7,38 L7,38 Z" id="path4256" sketch:type="MSShapeGroup"></path>
            </g>
        </g>
    </g>
</svg>