<?xml version="1.0" encoding="UTF-8" standalone="no"?>
<svg width="146px" height="40px" viewBox="0 0 146 40" version="1.1" xmlns="http://www.w3.org/2000/svg" xmlns:xlink="http://www.w3.org/1999/xlink" xmlns:sketch="http://www.bohemiancoding.com/sketch/ns">
    <title>dropbox-ffffff</title>
    <g id="Apps-Logos" stroke="none" stroke-width="1" fill="none" fill-rule="evenodd" sketch:type="MSPage">
        <g id="dropbox-ffffff" sketch:type="MSLayerGroup" fill="#8F8F8F">
            <path d="M12.7818756,0.00914893617 L0.206352326,8.24148936 L8.90141628,15.222766 L21.5809221,7.37297872 L12.7818756,0.00914893617 Z" id="Fill-1" sketch:type="MSShapeGroup"></path>
            <path d="M0.206394767,22.2043404 L12.781918,30.4366809 L21.5809645,23.0724255 L8.90145872,15.2226383 L0.206394767,22.2043404 Z" id="Fill-2" sketch:type="MSShapeGroup"></path>
            <path d="M21.5810919,23.0724255 L30.3805628,30.4366809 L42.9556616,22.2043404 L34.2605977,15.2226383 L21.5810919,23.0724255 Z" id="Fill-3" sketch:type="MSShapeGroup"></path>
            <path d="M42.955789,8.2413617 L30.3806901,0.0090212766 L21.5812192,7.37285106 L34.260725,15.2226383 L42.955789,8.2413617 Z" id="Fill-4" sketch:type="MSShapeGroup"></path>
            <path d="M21.6068116,24.656766 L12.7818756,31.9988936 L9.00582326,29.5269787 L9.00582326,32.2984681 L21.6068116,39.8750638 L34.2082244,32.2984681 L34.2082244,29.5269787 L30.4325965,31.9988936 L21.6068116,24.656766 Z" id="Fill-5" sketch:type="MSShapeGroup"></path>
            <g id="Group-20" transform="translate(49.232558, 8.085106)" sketch:type="MSShapeGroup">
                <path d="M4.97698721,3.98519149 L5.80672558,3.98519149 C7.76711512,3.98519149 10.4587779,4.21795745 10.4587779,11.0328511 C10.4587779,18.2805106 7.73443488,18.5137021 5.80672558,18.5137021 L4.97698721,18.5137021 L4.97698721,3.98519149 Z M0.125882558,22.3366809 L5.93999302,22.3366809 C7.63427209,22.3366809 10.0258709,22.3366809 11.9871093,20.8073191 C14.3791326,18.9788085 15.6086733,15.2554043 15.6086733,11.099234 C15.6086733,0.194553191 8.73054535,0.161361702 5.34156279,0.161361702 L0.125882558,0.161361702 L0.125882558,22.3366809 Z" id="Fill-6"></path>
                <path d="M17.2788878,5.94642553 L17.2788878,22.3366383 L21.8299285,22.3366383 L21.8299285,15.2553617 C21.8299285,13.9919574 21.8299285,10.2017447 25.1849576,10.2017447 C25.3517541,10.2017447 25.550382,10.2017447 25.9484866,10.2685532 L25.9484866,5.81365957 C25.7167541,5.74685106 25.4850215,5.71323404 25.1514285,5.71323404 C22.4941436,5.71323404 21.696661,8.50642553 21.298132,9.90259574 L21.298132,5.94642553 L17.2788878,5.94642553 Z" id="Fill-8"></path>
                <path d="M33.2459826,8.77242553 C34.6423198,8.77242553 35.1732674,9.9026383 35.1732674,14.1251915 C35.1732674,18.5137021 34.5752616,19.4779574 33.2459826,19.4779574 C31.8840233,19.4779574 31.2864419,18.4800851 31.2864419,14.1251915 C31.2864419,10.1026383 31.7516047,8.77242553 33.2133023,8.77242553 L33.2459826,8.77242553 Z M33.2459826,5.58051064 C28.3626221,5.58051064 26.5690291,9.00519149 26.5690291,14.1251915 C26.5690291,19.4111489 28.4950407,22.6690213 33.2133023,22.6690213 C37.9973488,22.6690213 39.8911047,19.3779574 39.8911047,14.1251915 C39.8911047,9.00519149 38.0975116,5.58051064 33.2459826,5.58051064 L33.2459826,5.58051064 Z" id="Fill-10"></path>
                <path d="M45.7265634,12.5291064 C45.7265634,11.0665532 45.7265634,8.73974468 47.7862669,8.73974468 C49.5471797,8.73974468 49.6795983,11.0329362 49.6795983,13.9257021 C49.6795983,17.3835745 49.5144994,19.411234 47.6529994,19.411234 C45.7265634,19.411234 45.7265634,18.0146383 45.7265634,15.6542128 L45.7265634,12.5291064 Z M41.2413076,5.94655319 L41.2413076,27.8891064 L45.7265634,27.8891064 L45.7265634,21.1405957 C46.2248308,21.6720851 47.055418,22.5691064 48.8494355,22.5691064 C54.0651157,22.5691064 54.3982843,16.2525106 54.3982843,13.9257021 C54.3982843,11.1661277 53.8669122,8.60570213 52.2715227,6.97719149 C51.474889,6.17931915 50.2449238,5.7133617 49.1486506,5.7133617 C46.922575,5.7133617 46.0253541,7.34229787 45.4604529,8.40655319 L45.4604529,5.94655319 L41.2413076,5.94655319 Z" id="Fill-12"></path>
                <path d="M60.2384116,11.7314043 C60.2384116,10.9003404 60.2384116,10.0692766 60.771057,9.43693617 C61.1029523,9.00502128 61.6343244,8.73948936 62.2323302,8.73948936 C63.5280802,8.73948936 64.2258244,9.83651064 64.2258244,14.1582128 C64.2258244,18.380766 63.5951384,19.5105532 62.1656965,19.5105532 C60.2384116,19.5105532 60.2384116,17.3833191 60.2384116,15.520766 L60.2384116,11.7314043 Z M55.7531558,0.161617021 L55.7531558,22.3365106 L58.4443942,22.3365106 C58.8098186,21.1731064 58.9761907,20.840766 59.3089349,20.2088511 C59.7066151,21.0399149 60.4714174,22.6688511 63.0964465,22.6688511 C63.9605628,22.6688511 64.8573593,22.5028936 65.7541558,22.0377872 C68.7446093,20.475234 68.944086,15.554383 68.944086,14.0250213 C68.944086,10.0692766 67.6814407,5.71310638 63.6604988,5.71310638 C61.7005337,5.71310638 60.804586,6.77778723 60.2384116,7.47608511 L60.2384116,0.161617021 L55.7531558,0.161617021 Z" id="Fill-14"></path>
                <path d="M76.7654843,8.77242553 C78.1596994,8.77242553 78.6919203,9.9026383 78.6919203,14.1251915 C78.6919203,18.5137021 78.094339,19.4779574 76.7654843,19.4779574 C75.4026762,19.4779574 74.8038215,18.4800851 74.8038215,14.1251915 C74.8038215,10.1026383 75.2698331,8.77242553 76.7319552,8.77242553 L76.7654843,8.77242553 Z M76.7654843,5.58051064 C71.8808506,5.58051064 70.0868331,9.00519149 70.0868331,14.1251915 C70.0868331,19.4111489 72.0145424,22.6690213 76.7319552,22.6690213 C81.5160017,22.6690213 83.4097576,19.3779574 83.4097576,14.1251915 C83.4097576,9.00519149 81.6153157,5.58051064 76.7654843,5.58051064 L76.7654843,5.58051064 Z" id="Fill-16"></path>
                <path d="M83.2329023,5.94642553 L87.4528965,13.9591915 L82.6026407,22.3366383 L86.5552512,22.3366383 L89.3131233,17.4170638 L91.7051465,22.3366383 L96.6555651,22.3366383 L91.7713558,13.1608936 L95.9905012,5.94642553 L92.0378907,5.94642553 L89.9442337,9.73621277 L88.1837453,5.94642553 L83.2329023,5.94642553 Z" id="Fill-18"></path>
            </g>
        </g>
    </g>
</svg>