<?xml version="1.0" encoding="UTF-8" standalone="no"?>
<svg width="62px" height="57px" viewBox="0 0 62 57" version="1.1" xmlns="http://www.w3.org/2000/svg" xmlns:xlink="http://www.w3.org/1999/xlink" xmlns:sketch="http://www.bohemiancoding.com/sketch/ns">
    <!-- Generator: Sketch 3.4.4 (17249) - http://www.bohemiancoding.com/sketch -->
    <title>dropbox</title>
    <desc>Created with Sketch.</desc>
    <defs></defs>
    <g id="Page-34" stroke="none" stroke-width="1" fill="none" fill-rule="evenodd" sketch:type="MSPage">
        <g id="Index" sketch:type="MSArtboardGroup" transform="translate(-583.000000, -410.000000)" fill="#007EE5">
            <g id="dropbox" sketch:type="MSLayerGroup" transform="translate(583.000000, 410.000000)">
                <path d="M12.4320171,21.7523668 L-1.63424829e-13,11.7706863 L17.9803356,0.000182526162 L30.5611091,10.5289 L12.4321004,21.7524337 L30.5611698,32.9757849 L17.9803963,43.5051107 L6.06828741e-05,31.734607 L12.4320171,21.7523668 L12.4320171,21.7523668 Z M30.5613519,32.9757849 L43.1427322,43.5051107 L61.122461,31.734607 L48.6903605,21.7522512 L30.5613519,32.9757849 L30.5613519,32.9757849 Z M61.122643,11.7705038 L43.1429142,0 L30.5615339,10.5287174 L48.6905426,21.7522512 L61.122643,11.7705038 L61.122643,11.7705038 Z M30.5981257,35.2410562 L17.9803356,45.7387442 L12.5813803,42.2044293 L12.5813803,46.1670723 L30.5981257,57 L48.6154779,46.1670723 L48.6154779,42.2044293 L43.2171294,45.7387442 L30.5981257,35.2410562 L30.5981257,35.2410562 Z" id="Fill-1" sketch:type="MSShapeGroup"></path>
            </g>
        </g>
    </g>
</svg>