<?xml version="1.0" encoding="UTF-8" standalone="no"?>
<svg width="133px" height="32px" viewBox="0 0 133 32" version="1.1" xmlns="http://www.w3.org/2000/svg" xmlns:xlink="http://www.w3.org/1999/xlink" xmlns:sketch="http://www.bohemiancoding.com/sketch/ns">
    <!-- Generator: Sketch 3.3.1 (12002) - http://www.bohemiancoding.com/sketch -->
    <title>Fill 3 + GitHub_Logo</title>
    <desc>Created with Sketch.</desc>
    <defs></defs>
    <g id="Apps-Logos" stroke="none" stroke-width="1" fill="none" fill-rule="evenodd" sketch:type="MSPage">
        <g id="Fill-3-+-GitHub_Logo" sketch:type="MSLayerGroup">
            <path d="M15.9985267,0 C7.16436969,0 0,7.3446728 0,16.4054189 C0,23.6534115 4.58405721,29.801667 10.9420179,31.9709287 C11.7425335,32.1219915 12.0342552,31.6154276 12.0342552,31.1803667 C12.0342552,30.7916318 12.020504,29.7593694 12.0126462,28.3907406 C7.56217195,29.3817125 6.62316216,26.1912664 6.62316216,26.1912664 C5.89533135,24.2959319 4.84631204,23.7913822 4.84631204,23.7913822 C3.3935971,22.7742261 4.95632156,22.7943678 4.95632156,22.7943678 C6.56226404,22.9101826 7.40697996,24.4852639 7.40697996,24.4852639 C8.83415697,26.9918991 11.1522146,26.2678048 12.063722,25.8478503 C12.2090917,24.7883966 12.6226097,24.0653094 13.0793456,23.6554257 C9.52662758,23.2415136 5.7912152,21.8336084 5.7912152,15.5473822 C5.7912152,13.7567847 6.41492986,12.2914756 7.43841125,11.1454126 C7.27339697,10.7304934 6.72433162,9.06175317 7.5955677,6.80386802 C7.5955677,6.80386802 8.93827312,6.36276467 11.9949661,8.4857004 C13.27088,8.12113554 14.6401056,7.93986019 16.0004911,7.93281059 C17.3598944,7.93986019 18.7281378,8.12113554 20.0060161,8.4857004 C23.0607447,6.36276467 24.4014856,6.80386802 24.4014856,6.80386802 C25.2746861,9.06175317 24.7256208,10.7304934 24.5615888,11.1454126 C25.5870346,12.2914756 26.2058381,13.7567847 26.2058381,15.5473822 C26.2058381,21.8497218 22.4645324,23.2364782 18.9010099,23.6423336 C19.4746309,24.1488974 19.9863716,25.1499402 19.9863716,26.6807098 C19.9863716,28.8731344 19.966727,30.6425832 19.966727,31.1803667 C19.966727,31.6194559 20.255502,32.1300481 21.0668222,31.9699216 C27.4198717,29.7956245 32,23.6513973 32,16.4054189 C32,7.3446728 24.8356303,0 15.9985267,0" id="Fill-3" fill="#161614" sketch:type="MSShapeGroup"></path>
            <g id="GitHub_Logo" transform="translate(44.000000, 4.387433)" fill="#11110F" sketch:type="MSShapeGroup">
                <g>
                    <path d="M17.0763692,10.2852923 L9.62603077,10.2852923 C9.43384615,10.2852923 9.27784615,10.4414769 9.27784615,10.6336615 L9.27784615,14.2763077 C9.27784615,14.4684923 9.43384615,14.6248615 9.62603077,14.6248615 L12.5324308,14.6248615 L12.5324308,19.1505231 C12.5324308,19.1505231 11.8798154,19.3729846 10.0755692,19.3729846 C7.94695385,19.3729846 4.97335385,18.5952 4.97335385,12.0564923 C4.97335385,5.51630769 8.06972308,4.65581538 10.9766769,4.65581538 C13.4929846,4.65581538 14.5770462,5.09889231 15.2667692,5.31230769 C15.4835077,5.37876923 15.684,5.16295385 15.684,4.97058462 L16.5151385,1.45107692 C16.5151385,1.36116923 16.4846769,1.2528 16.3820308,1.17913846 C16.1019692,0.979384615 14.3929846,0.0230769231 10.0755692,0.0230769231 C5.10184615,0.0230769231 0,2.13913846 0,12.3114462 C0,22.4841231 5.84123077,24 10.7634462,24 C14.8390154,24 17.3113846,22.2583385 17.3113846,22.2583385 C17.4132923,22.2020308 17.4243692,22.0596923 17.4243692,21.9943385 L17.4243692,10.6336615 C17.4243692,10.4414769 17.2685538,10.2852923 17.0763692,10.2852923" id="Fill-1"></path>
                    <path d="M55.4723077,1.24190769 C55.4723077,1.04806154 55.3187077,0.891692308 55.1265231,0.891692308 L50.9315077,0.891692308 C50.7398769,0.891692308 50.5840615,1.04806154 50.5840615,1.24190769 C50.5840615,1.24283077 50.5851692,9.34892308 50.5851692,9.34892308 L44.0462769,9.34892308 L44.0462769,1.24190769 C44.0462769,1.04806154 43.8919385,0.891692308 43.7001231,0.891692308 L39.5052923,0.891692308 C39.3144,0.891692308 39.1587692,1.04806154 39.1587692,1.24190769 L39.1587692,23.1932308 C39.1587692,23.3868923 39.3144,23.5445538 39.5052923,23.5445538 L43.7001231,23.5445538 C43.8919385,23.5445538 44.0462769,23.3868923 44.0462769,23.1932308 L44.0462769,13.8038769 L50.5851692,13.8038769 C50.5851692,13.8038769 50.5737231,23.1924923 50.5737231,23.1932308 C50.5737231,23.3868923 50.7293538,23.5445538 50.9211692,23.5445538 L55.1261538,23.5445538 C55.3183385,23.5445538 55.4719385,23.3868923 55.4723077,23.1932308 L55.4723077,1.24190769" id="Fill-2"></path>
                    <path d="M24.9924923,4.12246154 C24.9924923,2.61193846 23.7814154,1.39126154 22.2873231,1.39126154 C20.7947077,1.39126154 19.5827077,2.61193846 19.5827077,4.12246154 C19.5827077,5.63132308 20.7947077,6.85532308 22.2873231,6.85532308 C23.7814154,6.85532308 24.9924923,5.63132308 24.9924923,4.12246154" id="Fill-3"></path>
                    <path d="M24.6924923,18.5627077 L24.6924923,8.42990769 C24.6924923,8.23753846 24.5372308,8.08024615 24.3454154,8.08024615 L20.1636923,8.08024615 C19.9718769,8.08024615 19.8001846,8.27815385 19.8001846,8.47052308 L19.8001846,22.9877538 C19.8001846,23.4144 20.0660308,23.5412308 20.4101538,23.5412308 L24.1777846,23.5412308 C24.5911385,23.5412308 24.6924923,23.3383385 24.6924923,22.9809231 L24.6924923,18.5627077" id="Fill-4"></path>
                    <path d="M71.4151385,8.11329231 L67.2522462,8.11329231 C67.0613538,8.11329231 66.9059077,8.27058462 66.9059077,8.46424615 L66.9059077,19.2276923 C66.9059077,19.2276923 65.8484308,20.0014154 64.3473231,20.0014154 C62.8464,20.0014154 62.448,19.3203692 62.448,17.8506462 L62.448,8.46424615 C62.448,8.27058462 62.2929231,8.11329231 62.1018462,8.11329231 L57.8769231,8.11329231 C57.6862154,8.11329231 57.5300308,8.27058462 57.5300308,8.46424615 L57.5300308,18.5614154 C57.5300308,22.9268308 59.9630769,23.9948308 63.3101538,23.9948308 C66.0559385,23.9948308 68.2698462,22.4778462 68.2698462,22.4778462 C68.2698462,22.4778462 68.3752615,23.2772308 68.4228923,23.3721231 C68.4707077,23.4666462 68.5949538,23.5620923 68.7291692,23.5620923 L71.4169846,23.5502769 C71.6076923,23.5502769 71.7638769,23.3926154 71.7638769,23.1998769 L71.7625846,8.46424615 C71.7625846,8.27058462 71.6069538,8.11329231 71.4151385,8.11329231" id="Fill-5"></path>
                    <path d="M81.1508308,19.9881231 C79.7069538,19.9441846 78.7275692,19.2889846 78.7275692,19.2889846 L78.7275692,12.3374769 C78.7275692,12.3374769 79.6938462,11.7452308 80.8792615,11.6392615 C82.3783385,11.5050462 83.8227692,11.9579077 83.8227692,15.5339077 C83.8227692,19.3048615 83.1708923,20.0490462 81.1508308,19.9881231 L81.1508308,19.9881231 Z M82.7928,7.62018462 C80.4284308,7.62018462 78.8202462,8.67507692 78.8202462,8.67507692 L78.8202462,1.24190769 C78.8202462,1.04806154 78.6653538,0.891692308 78.4740923,0.891692308 L74.2672615,0.891692308 C74.076,0.891692308 73.9205538,1.04806154 73.9205538,1.24190769 L73.9205538,23.1932308 C73.9205538,23.3868923 74.076,23.5445538 74.2678154,23.5445538 L77.1865846,23.5445538 C77.3180308,23.5445538 77.4175385,23.4768 77.4910154,23.3580923 C77.5635692,23.2401231 77.6682462,22.3460308 77.6682462,22.3460308 C77.6682462,22.3460308 79.3884923,23.9761846 82.6449231,23.9761846 C86.4679385,23.9761846 88.6604308,22.0369846 88.6604308,15.2706462 C88.6604308,8.50430769 85.1588308,7.62018462 82.7928,7.62018462 L82.7928,7.62018462 Z" id="Fill-6"></path>
                    <path d="M36.7491692,8.07821538 L33.6024,8.07821538 C33.6024,8.07821538 33.5976,3.92196923 33.5976,3.92104615 C33.5976,3.76375385 33.5165538,3.68510769 33.3347077,3.68510769 L29.0464615,3.68510769 C28.8797538,3.68510769 28.7902154,3.7584 28.7902154,3.91864615 L28.7902154,8.21464615 C28.7902154,8.21464615 26.6412923,8.73341538 26.496,8.77532308 C26.3512615,8.81723077 26.2447385,8.95070769 26.2447385,9.10984615 L26.2447385,11.8094769 C26.2447385,12.0036923 26.3998154,12.1602462 26.5916308,12.1602462 L28.7902154,12.1602462 L28.7902154,18.6546462 C28.7902154,23.4784615 32.1738462,23.9523692 34.4571692,23.9523692 C35.5004308,23.9523692 36.7484308,23.6172923 36.9544615,23.5412308 C37.0790769,23.4954462 37.1514462,23.3664 37.1514462,23.2264615 L37.1549538,20.2567385 C37.1549538,20.0630769 36.9913846,19.9063385 36.8071385,19.9063385 C36.6238154,19.9063385 36.1547077,19.9809231 35.6717538,19.9809231 C34.1261538,19.9809231 33.6024,19.2622154 33.6024,18.3319385 C33.6024,17.4024 33.6022154,12.1602462 33.6022154,12.1602462 L36.7491692,12.1602462 C36.9409846,12.1602462 37.0962462,12.0036923 37.0962462,11.8094769 L37.0962462,8.42806154 C37.0962462,8.2344 36.9409846,8.07821538 36.7491692,8.07821538" id="Fill-7"></path>
                </g>
            </g>
        </g>
    </g>
</svg>