<?xml version="1.0" encoding="UTF-8" standalone="no"?>
<svg width="58px" height="58px" viewBox="0 0 58 58" version="1.1" xmlns="http://www.w3.org/2000/svg" xmlns:xlink="http://www.w3.org/1999/xlink" xmlns:sketch="http://www.bohemiancoding.com/sketch/ns">
    <!-- Generator: Sketch 3.4.4 (17249) - http://www.bohemiancoding.com/sketch -->
    <title>github</title>
    <desc>Created with Sketch.</desc>
    <defs></defs>
    <g id="Page-34" stroke="none" stroke-width="1" fill="none" fill-rule="evenodd" sketch:type="MSPage">
        <g id="Index" sketch:type="MSArtboardGroup" transform="translate(-382.000000, -409.000000)" fill="#161614">
            <g id="github" sketch:type="MSLayerGroup" transform="translate(382.000000, 409.000000)">
                <path d="M29,0 C12.9854201,0 0,13.3122195 0,30 C0,42.8718083 8.3086037,54.0155215 20,58 C21.283342,58.2211095 21.8120875,57.3029625 22,57 C21.8120875,55.8098327 21.7871635,53.9388571 22,51 C13.7064367,53.2543538 12.0044814,47.4716703 12,47 C10.6852881,44.0363766 8.78394058,43.1218802 9,43 C6.15089475,41.2782847 8.98333282,41.3147916 9,41 C11.8941036,41.5247059 13.4251512,44.3795409 13,44 C16.0119095,48.9228172 20.213389,47.6103963 22,47 C22.1289788,44.9289688 22.87848,43.6183732 24,43 C17.2670125,42.1252435 10.4965775,39.5734153 10,28 C10.4965775,24.9341722 11.6270604,22.2782995 13,20 C13.183032,19.4490194 12.1878511,16.4244276 14,12 C13.7669665,12.3320108 16.20062,11.532511 22,15 C24.05347,14.7195582 26.5351914,14.3909966 29,14 C31.4648086,14.3909966 33.9447497,14.7195582 36,15 C41.7975997,11.532511 44.2276927,12.3320108 44,12 C45.8103686,16.4244276 44.8151877,19.4490194 45,20 C46.3765002,22.2782995 47.4980816,24.9341722 47,28 C47.4980816,39.6026208 40.7169649,42.1161167 34,43 C35.2977685,43.7698766 36.2252985,45.5842666 36,48 C36.2252985,52.3325561 36.1896927,55.5396821 36,57 C36.1896927,57.3102638 36.7130974,58.2357122 38,58 C49.6985174,54.0045694 58,42.8681577 58,30 C58,13.3122195 45.0145799,0 29,0" id="Fill-3" sketch:type="MSShapeGroup"></path>
            </g>
        </g>
    </g>
</svg>