<?xml version="1.0" encoding="UTF-8" standalone="no"?>
<svg width="59px" height="62px" viewBox="0 0 59 62" version="1.1" xmlns="http://www.w3.org/2000/svg" xmlns:xlink="http://www.w3.org/1999/xlink" xmlns:sketch="http://www.bohemiancoding.com/sketch/ns">
    <!-- Generator: Sketch 3.4.4 (17249) - http://www.bohemiancoding.com/sketch -->
    <title>targetprocess</title>
    <desc>Created with Sketch.</desc>
    <defs></defs>
    <g id="Page-34" stroke="none" stroke-width="1" fill="none" fill-rule="evenodd" sketch:type="MSPage">
        <g id="Index" sketch:type="MSArtboardGroup" transform="translate(-1192.000000, -407.000000)">
            <g id="targetprocess" sketch:type="MSLayerGroup" transform="translate(1192.000000, 407.000000)">
                <path d="M10.4207116,14.6385784 C10.6854564,13.1243085 9.67065724,11.6824565 8.15409417,11.418112 C6.6375311,11.1537675 5.19349572,12.1670322 4.92875087,13.6813022 L0.63916711,38.2165781 C0.374422264,39.730848 1.38922144,41.1727 2.90578451,41.4370445 C4.42234758,41.701389 5.86638296,40.6881243 6.1311278,39.1738543 L10.4207116,14.6385784 Z" id="Stroke-55" fill="#A2163B" sketch:type="MSShapeGroup"></path>
                <path d="M28.2139712,51.1472475 C29.6606971,50.6216997 30.4068143,49.0246294 29.8804707,47.580091 C29.3541271,46.1355526 27.7546383,45.3905636 26.3079124,45.9161113 L17.8322533,48.9950385 C16.3855274,49.5205862 15.6394102,51.1176566 16.1657538,52.562195 C16.6920974,54.0067333 18.2915863,54.7517224 19.7383121,54.2261747 L28.2139712,51.1472475 Z" id="Stroke-73" fill="#E48B21" sketch:type="MSShapeGroup"></path>
                <path d="M20.8867183,10.8298211 C21.1541901,9.31602897 20.1419895,7.8723571 18.625905,7.60528971 C17.1098205,7.33822232 15.6639625,8.3488924 15.3964906,9.86268451 L13.8294205,18.7317253 C13.5619487,20.2455174 14.5741492,21.6891892 16.0902337,21.9562566 C17.6063182,22.223324 19.0521763,21.2126539 19.3196481,19.6988618 L20.8867183,10.8298211 Z" id="Stroke-57" fill="#008BB9" sketch:type="MSShapeGroup"></path>
                <path d="M16.1881557,37.4364626 C16.4556275,35.9226705 15.4434269,34.4789986 13.9273424,34.2119313 C12.4112579,33.9448639 10.9653999,34.9555339 10.697928,36.4693261 L9.13085788,45.3383668 C8.86338606,46.8521589 9.87558663,48.2958308 11.3916711,48.5628982 C12.9077556,48.8299656 14.3536137,47.8192955 14.6210855,46.3055034 L16.1881557,37.4364626 Z" id="Stroke-59" fill="#560604" sketch:type="MSShapeGroup"></path>
                <path d="M31.7329679,15.186279 C32.9123353,16.1743008 34.6705644,16.0206302 35.6600824,14.8430461 C36.6496004,13.6654619 36.4956971,11.9098914 35.3163297,10.9218696 L28.4077408,5.13415951 C27.2283734,4.14613768 25.4701443,4.29980831 24.4806263,5.47739246 C23.4911083,6.65497661 23.6450116,8.41054712 24.8243791,9.39856895 L31.7329679,15.186279 Z" id="Stroke-61" fill="#4F9F4F" sketch:type="MSShapeGroup"></path>
                <path d="M52.4604196,32.5525338 C53.639787,33.5405556 55.398016,33.386885 56.3875341,32.2093008 C57.3770521,31.0317167 57.2231487,29.2761462 56.0437813,28.2881243 L49.1351924,22.5004143 C47.955825,21.5123925 46.197596,21.6660631 45.208078,22.8436472 C44.21856,24.0212314 44.3724633,25.7768019 45.5518307,26.7648237 L52.4604196,32.5525338 Z" id="Stroke-63" fill="#0E6D65" sketch:type="MSShapeGroup"></path>
                <path d="M53.6399855,41.9068607 C55.0867113,41.381313 55.8328286,39.7842426 55.306485,38.3397043 C54.7801414,36.8951659 53.1806525,36.1501768 51.7339266,36.6757245 L43.2582676,39.7546517 C41.8115417,40.2801995 41.0654245,41.8772698 41.5917681,43.3218082 C42.1181117,44.7663466 43.7176005,45.5113357 45.1643264,44.9857879 L53.6399855,41.9068607 Z" id="Stroke-65" fill="#008BB9" sketch:type="MSShapeGroup"></path>
                <path d="M27.0344053,41.7929205 C28.2137727,42.7809424 29.9720018,42.6272717 30.9615198,41.4496876 C31.9510378,40.2721034 31.7971345,38.5165329 30.6177671,37.5285111 L23.7091782,31.7408011 C22.5298108,30.7527792 20.7715818,30.9064499 19.7820637,32.084034 C18.7925457,33.2616182 18.9464491,35.0171887 20.1258165,36.0052105 L27.0344053,41.7929205 Z" id="Stroke-67" fill="#91BEAF" sketch:type="MSShapeGroup"></path>
                <path d="M41.6141699,28.1960759 C41.8816418,26.6822837 40.8694412,25.2386119 39.3533567,24.9715445 C37.8372722,24.7044771 36.3914141,25.7151472 36.1239423,27.2289393 L34.5568722,36.09798 C34.2894003,37.6117722 35.3016009,39.055444 36.8176854,39.3225114 C38.3337699,39.5895788 39.779628,38.5789087 40.0470998,37.0651166 L41.6141699,28.1960759 Z" id="Stroke-69" fill="#4A625A" sketch:type="MSShapeGroup"></path>
                <path d="M32.9125338,24.540606 C34.3592597,24.0150582 35.1053769,22.4179878 34.5790333,20.9734495 C34.0526897,19.5289111 32.4532008,18.783922 31.006475,19.3094698 L22.5308159,22.3883969 C21.08409,22.9139447 20.3379728,24.511015 20.8643164,25.9555534 C21.39066,27.4000918 22.9901489,28.1450809 24.4368747,27.6195331 L32.9125338,24.540606 Z" id="Stroke-71" fill="#B9BC63" sketch:type="MSShapeGroup"></path>
                <path d="M54.4101638,21.4765122 C55.5895003,22.4645708 57.3477342,22.3109549 58.337289,21.1334016 C59.3268438,19.9558483 59.1729953,18.200273 57.9936587,17.2122144 L38.9962429,1.29601175 C37.8169064,0.307953188 36.0586725,0.461569051 35.0691177,1.63912238 C34.0795629,2.81667571 34.2334114,4.57225101 35.412748,5.56030957 L54.4101638,21.4765122 Z" id="Stroke-49" fill="#649791" sketch:type="MSShapeGroup"></path>
                <path d="M26.3180651,56.2038976 C24.8693115,56.7238467 24.1170049,58.3180197 24.6377414,59.7645827 C25.1584778,61.2111457 26.7550649,61.9623147 28.2038185,61.4423656 L51.6569131,53.0251893 C53.1056667,52.5052402 53.8579732,50.9110672 53.3372368,49.4645042 C52.8165004,48.0179412 51.2199132,47.2667722 49.7711597,47.7867213 L26.3180651,56.2038976 Z" id="Stroke-51" fill="#F0C500" sketch:type="MSShapeGroup"></path>
            </g>
        </g>
    </g>
</svg>