<?xml version="1.0" encoding="UTF-8" standalone="no"?>
<svg width="197px" height="43px" viewBox="0 0 197 43" version="1.1" xmlns="http://www.w3.org/2000/svg" xmlns:xlink="http://www.w3.org/1999/xlink" xmlns:sketch="http://www.bohemiancoding.com/sketch/ns">
    <!-- Generator: Sketch 3.2.2 (9983) - http://www.bohemiancoding.com/sketch -->
    <title>targetprocess-000000</title>
    <desc>Created with Sketch.</desc>
    <defs></defs>
    <g id="Choose-source" stroke="none" stroke-width="1" fill="none" fill-rule="evenodd" sketch:type="MSPage">
        <g id="Add-6" sketch:type="MSArtboardGroup" transform="translate(-778.000000, -598.000000)">
            <g id="targetprocess-000000" sketch:type="MSLayerGroup" transform="translate(778.000000, 598.000000)">
                <path d="M7.97437674,37.0082702 C7.26609302,37.6121 5.55814884,37.7228021 4.9469907,37.7228021 C3.46353488,37.7228021 2.02039535,37.3522702 1.12152558,36.2946532 C0.0210744186,35.0256957 0.228153488,33.2544617 0.536939535,31.5097596 L2.61414419,19.7451426 C2.69386047,19.2959298 3.17307442,19.2529298 3.59639535,19.2529298 C4.02063256,19.2529298 4.38806047,19.2959298 4.30834419,19.7451426 L3.62205116,23.6316106 L9.60626977,23.6316106 C10.0295907,23.6316106 10.1221349,23.9490787 10.0433349,24.3982915 C9.9636186,24.8475043 9.75928837,25.1649723 9.33505116,25.1649723 L3.35174884,25.1649723 L2.23113953,31.5097596 C1.73176744,34.3386106 1.9874093,36.1894404 5.21729302,36.1894404 C5.87884651,36.1894404 6.51199535,36.0567809 7.18912558,35.8189085 C7.30457674,35.7667596 7.44110233,35.7402277 7.5473907,35.7402277 C7.76729767,35.7402277 7.95971628,35.8125043 8.0550093,36.1601638 C8.1558,36.5297809 8.11090233,36.8920787 7.97437674,37.0082702" id="Fill-23" fill="#FFFFFF" sketch:type="MSShapeGroup"></path>
                <path d="M21.023107,31.5099426 L21.2375163,30.2940489 C20.0353581,30.0561766 18.7883023,29.923517 17.5174233,29.923517 C15.2926977,29.923517 13.4555581,30.5840702 13.0212419,33.0433043 C12.5960884,35.4485596 14.2655488,36.1896234 16.4105581,36.1896234 C19.6404419,36.1896234 20.5237349,34.3387936 21.023107,31.5099426 M22.4864047,24.8733043 C23.5593674,26.1431766 23.347707,27.9409426 23.0444186,29.6591128 L22.717307,31.5099426 C22.4140186,33.2281128 21.9906977,35.0258787 20.4696744,36.2948362 C19.1703907,37.3524532 17.6227953,37.7229851 16.1393395,37.7229851 C13.0679721,37.7229851 10.7433721,36.3479 11.3261256,33.0433043 C11.9290372,29.6325809 14.7209395,28.3636234 17.792307,28.3636234 C19.063186,28.3636234 20.297414,28.5749638 21.4995721,28.8128362 C21.8413442,26.2749213 21.0643395,24.9794319 18.3897209,24.9794319 C17.0922698,24.9794319 15.9121023,25.2182191 14.6119023,25.5347723 C14.5010326,25.5613043 14.4167349,25.5878362 14.3379349,25.5878362 C13.9136977,25.5878362 13.8257349,25.2438362 13.9054512,24.7946234 C13.970507,24.4240915 14.0117395,24.1331553 14.374586,24.0279426 C15.7563349,23.5521979 17.2837721,23.4460702 18.6609395,23.4460702 C20.1434791,23.4460702 21.5609628,23.8166021 22.4864047,24.8733043" id="Fill-25" fill="#FFFFFF" sketch:type="MSShapeGroup"></path>
                <path d="M35.6273126,23.9222723 C35.9214381,24.054017 36.0433033,24.2818255 35.9232707,24.6093574 C35.7051963,25.1994638 35.4623823,25.455634 35.0390614,25.455634 C34.9062009,25.455634 34.8054102,25.4291021 34.7082847,25.3760383 C34.0842986,25.1646979 33.4548149,24.9798894 32.7666893,24.9798894 C28.9797079,24.9798894 28.4464335,27.7026128 27.9324009,30.6110596 L26.7723916,37.1251021 C26.688094,37.6008468 26.2134614,37.6173149 25.7901405,37.6173149 C25.3659033,37.6173149 24.993894,37.6008468 25.0781916,37.1251021 L26.271187,30.4262511 C26.4205405,29.5799745 26.5790567,28.680634 26.8658521,27.8087404 C27.8068707,24.8737617 30.1250567,23.4465277 33.0369916,23.4465277 C33.8048335,23.4465277 34.9730893,23.5782723 35.6273126,23.9222723" id="Fill-27" fill="#FFFFFF" sketch:type="MSShapeGroup"></path>
                <path d="M46.3268865,34.4178404 L47.1863563,29.5533511 C47.681147,26.7510319 47.3842726,24.9797979 44.207533,24.9797979 C40.7128447,24.9797979 39.8515423,27.3063723 39.3475888,30.1617553 C38.8381377,33.0427553 38.8198121,35.3958617 42.3676447,35.3958617 C43.6650958,35.3958617 45.0853284,34.9997128 46.3268865,34.4178404 M48.3033005,24.8736702 C49.3725981,26.1691596 49.1701005,27.9138617 48.8668121,29.6329468 L47.7177981,36.1360106 C47.4145098,37.8550957 46.9911888,39.6528617 45.4692493,40.9218191 C44.1708819,41.9794362 42.6223702,42.3490532 41.1398307,42.3490532 C39.6307191,42.3490532 37.7505144,41.8998404 36.5840912,41.1596915 C36.3476912,41.0005 36.0233284,40.6491809 36.2643098,40.3051809 C36.619826,39.7983298 36.9194493,39.6299894 37.2474772,39.6528617 C37.3794214,39.6620106 37.5077005,39.6793936 37.6304819,39.7315426 C38.7987377,40.3134149 39.9807377,40.8156915 41.4110493,40.8156915 C44.640933,40.8156915 45.524226,38.9657766 46.0235981,36.1360106 L46.0510865,35.977734 C44.7618819,36.5330745 43.3947935,36.9292234 42.0973423,36.9292234 C39.1844912,36.9292234 37.2749656,35.4489255 37.3739237,32.4883298 C37.4087423,31.6942021 37.5168633,30.9284362 37.6524726,30.1617553 C37.7880819,29.3950745 37.9456819,28.6540106 38.1866633,27.8882447 C39.1331795,24.926734 41.5659005,23.4464362 44.4778353,23.4464362 C45.9612912,23.4464362 47.3787749,23.8160532 48.3033005,24.8736702" id="Fill-29" fill="#FFFFFF" sketch:type="MSShapeGroup"></path>
                <path d="M53.8634651,29.5797915 L60.5889535,29.5797915 C61.3567953,29.5797915 61.7361349,29.0775149 61.8625814,28.3638979 C62.2593302,26.1160043 60.7126512,24.9797064 58.620786,24.9797064 C55.3909023,24.9797064 54.4233116,26.8570681 53.8634651,29.5797915 M60.777707,35.104834 C60.9197302,35.0526851 61.0562558,35.0261532 61.1891163,35.0261532 C61.6390093,35.0261532 61.7343023,35.3253234 61.8964837,35.819366 C61.9963581,36.1249404 61.6124372,36.3737915 61.3201442,36.532983 C59.9228186,37.2466 57.8272884,37.7223447 56.3704047,37.7223447 C53.5106977,37.7223447 51.5388651,36.2951106 51.6341581,33.3601319 C51.6643953,32.4351745 51.8284093,31.510217 51.991507,30.5843447 C52.1546047,29.6593872 52.3186186,28.7335149 52.6136605,27.8085574 C53.5555953,24.8735787 56.0322977,23.4463447 58.8920047,23.4463447 C61.7251395,23.4463447 63.7235442,24.8735787 63.6016791,27.8085574 C63.5961814,27.993366 63.5897674,28.1790894 63.5567814,28.3638979 C63.2672372,30.0024723 61.9862791,31.1131532 60.3177349,31.1131532 L53.5922465,31.1131532 C53.1102837,33.9950681 53.1194465,36.188983 56.6416233,36.188983 C58.0444465,36.188983 59.4042047,35.6867064 60.777707,35.104834" id="Fill-31" fill="#FFFFFF" sketch:type="MSShapeGroup"></path>
                <path d="M85.4332191,24.9796149 C81.6205819,24.9796149 81.0259167,27.5971255 80.5027214,30.5577213 L79.6863167,35.1843383 C80.7702749,35.7927426 82.1034609,36.1888915 83.4540563,36.1888915 C87.2401214,36.1888915 87.8347865,33.5713809 88.361647,30.5842532 C88.8894237,27.5971255 89.2192842,24.9796149 85.4332191,24.9796149 M89.4336935,33.3600404 C88.4926749,36.2950191 86.0159726,37.7222532 83.1828377,37.7222532 C81.7268702,37.7222532 80.5961819,37.3791681 79.4105167,36.7442319 L78.5235586,41.7679128 C78.4438423,42.2171255 77.9646284,42.2601255 77.5413074,42.2601255 C77.1170702,42.2601255 76.7496423,42.2171255 76.8293586,41.7679128 L78.8552516,30.293317 C79.0000237,29.4744872 79.1493772,28.6282106 79.4260935,27.808466 C80.3680284,24.8734872 82.8447307,23.4462532 85.7044377,23.4462532 C88.5375726,23.4462532 90.5094051,24.8734872 90.4141121,27.808466 C90.3838749,28.7334234 90.2198609,29.6592957 90.0567633,30.5842532 C89.8927493,31.5101255 89.7296516,32.435083 89.4336935,33.3600404" id="Fill-33" fill="#FFFFFF" sketch:type="MSShapeGroup"></path>
                <path d="M114.036703,30.5842532 C114.56448,27.5971255 114.89434,24.9796149 111.108275,24.9796149 C107.294721,24.9796149 106.700973,27.5971255 106.173196,30.5842532 C105.645419,33.5722957 105.315559,36.1888915 109.128196,36.1888915 C112.914261,36.1888915 113.508926,33.5722957 114.036703,30.5842532 M116.089168,27.808466 C116.058014,28.7334234 115.894917,29.6592957 115.730903,30.5842532 C115.567805,31.5101255 115.404707,32.435083 115.108749,33.3600404 C114.166814,36.2950191 111.691028,37.7222532 108.857893,37.7222532 C105.971614,37.7222532 104.026354,36.2950191 104.120731,33.3600404 C104.151884,32.435083 104.314982,31.5101255 104.47808,30.5842532 C104.642093,29.6592957 104.805191,28.7334234 105.101149,27.808466 C106.043084,24.8734872 108.492298,23.4462532 111.378577,23.4462532 C114.238284,23.4462532 116.183545,24.8734872 116.089168,27.808466" id="Fill-35" fill="#FFFFFF" sketch:type="MSShapeGroup"></path>
                <path d="M127.482457,35.105017 C127.62448,35.0528681 127.761006,35.0263362 127.893866,35.0263362 C128.343759,35.0263362 128.374913,35.3465489 128.527931,35.8351021 C128.625057,36.1425064 128.317187,36.3739745 128.024894,36.533166 C126.627568,37.246783 124.63741,37.7225277 123.207099,37.7225277 C120.321736,37.7225277 118.376475,36.2952936 118.470852,33.3603149 C118.502006,32.4353574 118.665103,31.5104 118.828201,30.5845277 C118.992215,29.6595702 119.155313,28.7336979 119.451271,27.8087404 C120.393206,24.8737617 122.84242,23.4465277 125.728699,23.4465277 C127.158094,23.4465277 129.007145,23.9222723 130.125006,24.6358894 C130.362322,24.7950809 130.41455,25.0036766 130.304596,25.3055915 C130.101182,25.8627617 129.912429,26.1427191 129.462536,26.1427191 C129.329675,26.1427191 129.202313,26.1161872 129.078615,26.0640383 C127.93235,25.5086979 126.834647,24.9798894 125.45748,24.9798894 C121.644843,24.9798894 121.045596,27.6239319 120.523317,30.5845277 C120.000122,33.5451234 119.66568,36.189166 123.478317,36.189166 C124.854568,36.189166 126.140108,35.6603574 127.482457,35.105017" id="Fill-37" fill="#FFFFFF" sketch:type="MSShapeGroup"></path>
                <path d="M145.722,37.0616085 C145.37473,36.9289489 145.053116,36.6380128 145.307841,36.2748 C145.621209,35.8283319 145.855776,35.4934809 146.236032,35.5017149 C146.314832,35.5035447 146.389967,35.5282468 146.465102,35.5547787 C147.679172,35.8722468 148.815358,36.1888 150.112809,36.1888 C151.753865,36.1888 153.334446,35.6343745 153.666139,33.7570128 C153.97859,31.9857787 152.181767,31.6683106 150.829339,31.3773745 C148.663255,30.9016298 146.501753,29.9501404 146.97272,27.279566 C147.467511,24.4772468 150.033093,23.4461617 152.521707,23.4461617 C153.554353,23.4461617 154.72719,23.5522894 155.646218,23.8953745 C155.971497,24.0015021 156.061293,24.2412043 155.94126,24.5970979 C155.767167,25.1112681 155.555507,25.4552681 155.132186,25.4552681 C155.052469,25.4552681 154.978251,25.4296511 154.898534,25.4296511 C154.013409,25.1917787 153.204334,24.9795234 152.250488,24.9795234 C150.688232,24.9795234 148.994032,25.4296511 148.667837,27.279566 C148.354469,29.0508 150.143046,29.4213319 151.489976,29.7378851 C153.65606,30.2136298 155.836804,31.0599064 155.360339,33.7570128 C154.860967,36.5858638 152.356776,37.7230766 149.84159,37.7230766 C148.570711,37.7230766 146.834362,37.5108213 145.722,37.0616085" id="Fill-39" fill="#FFFFFF" sketch:type="MSShapeGroup"></path>
                <path d="M102.935157,23.9222723 C103.229283,24.054017 103.351148,24.2818255 103.231115,24.6093574 C103.013041,25.1994638 102.770227,25.455634 102.346906,25.455634 C102.214046,25.455634 102.113255,25.4291021 102.016129,25.3760383 C101.392143,25.1646979 100.76266,24.9798894 100.074534,24.9798894 C96.2875526,24.9798894 95.7542781,27.7026128 95.2402456,30.6110596 L94.0802363,37.1251021 C93.9959386,37.6008468 93.521306,37.6173149 93.0979851,37.6173149 C92.6737479,37.6173149 92.3017386,37.6008468 92.3860363,37.1251021 L93.5790316,30.4262511 C93.7283851,29.5799745 93.8869014,28.680634 94.1736967,27.8087404 C95.1147153,24.8737617 97.4329014,23.4465277 100.344836,23.4465277 C101.112678,23.4465277 102.280934,23.5782723 102.935157,23.9222723" id="Fill-41" fill="#FFFFFF" sketch:type="MSShapeGroup"></path>
                <path d="M74.0071274,37.0082702 C73.2988437,37.6121 71.5908995,37.7228021 70.9797414,37.7228021 C69.4962856,37.7228021 68.053146,37.3522702 67.1542763,36.2946532 C66.0538251,35.0256957 66.2609042,33.2544617 66.5696902,31.5097596 L68.6468949,19.7451426 C68.7266112,19.2959298 69.2058251,19.2529298 69.629146,19.2529298 C70.0533833,19.2529298 70.4208112,19.2959298 70.3410949,19.7451426 L69.6548019,23.6316106 L75.6390205,23.6316106 C76.0623414,23.6316106 76.1558019,23.9490787 76.0760856,24.3982915 C75.9963693,24.8475043 75.7920391,25.1649723 75.3678019,25.1649723 L69.3844995,25.1649723 L68.2638902,31.5097596 C67.7645181,34.3386106 68.02016,36.1894404 71.2500437,36.1894404 C71.9125135,36.1894404 72.544746,36.0567809 73.2218763,35.8189085 C73.3373274,35.7667596 73.473853,35.7402277 73.5801414,35.7402277 C73.8000484,35.7402277 73.992467,35.8125043 74.08776,36.1601638 C74.189467,36.5297809 74.143653,36.8920787 74.0071274,37.0082702" id="Fill-43" fill="#FFFFFF" sketch:type="MSShapeGroup"></path>
                <path d="M133.981074,29.5797915 L140.706563,29.5797915 C141.474405,29.5797915 141.853744,29.0775149 141.980191,28.3638979 C142.37694,26.1160043 140.83026,24.9797064 138.738395,24.9797064 C135.508512,24.9797064 134.540921,26.8570681 133.981074,29.5797915 M140.895316,35.104834 C141.03734,35.0526851 141.173865,35.0261532 141.306726,35.0261532 C141.756619,35.0261532 141.851912,35.3253234 142.014093,35.819366 C142.113967,36.1249404 141.730047,36.3737915 141.437753,36.532983 C140.040428,37.2466 137.944898,37.7223447 136.488014,37.7223447 C133.628307,37.7223447 131.656474,36.2951106 131.751767,33.3601319 C131.782005,32.4351745 131.946019,31.510217 132.109116,30.5843447 C132.272214,29.6593872 132.436228,28.7335149 132.732186,27.8085574 C133.673205,24.8735787 136.149907,23.4463447 139.009614,23.4463447 C141.842749,23.4463447 143.841153,24.8735787 143.719288,27.8085574 C143.713791,27.993366 143.707377,28.1790894 143.674391,28.3638979 C143.384847,30.0024723 142.103888,31.1131532 140.435344,31.1131532 L133.709856,31.1131532 C133.227893,33.9950681 133.237056,36.188983 136.759233,36.188983 C138.162056,36.188983 139.521814,35.6867064 140.895316,35.104834" id="Fill-45" fill="#FFFFFF" sketch:type="MSShapeGroup"></path>
                <path d="M158.112292,37.0616085 C157.765022,36.9289489 157.443408,36.6380128 157.698133,36.2748 C158.011501,35.8283319 158.246068,35.4934809 158.626324,35.5017149 C158.705124,35.5035447 158.780259,35.5282468 158.855394,35.5547787 C160.069464,35.8722468 161.20565,36.1888 162.503101,36.1888 C164.144157,36.1888 165.724738,35.6343745 166.056431,33.7570128 C166.368882,31.9857787 164.572059,31.6683106 163.219631,31.3773745 C161.053547,30.9016298 158.892045,29.9501404 159.363013,27.279566 C159.857803,24.4772468 162.423385,23.4461617 164.911999,23.4461617 C165.944645,23.4461617 167.117482,23.5522894 168.03651,23.8953745 C168.361789,24.0015021 168.451585,24.2412043 168.331552,24.5970979 C168.157459,25.1112681 167.945799,25.4552681 167.522478,25.4552681 C167.442761,25.4552681 167.368543,25.4296511 167.288827,25.4296511 C166.403701,25.1917787 165.594627,24.9795234 164.64078,24.9795234 C163.078524,24.9795234 161.384324,25.4296511 161.058129,27.279566 C160.744761,29.0508 162.533338,29.4213319 163.880268,29.7378851 C166.046352,30.2136298 168.227096,31.0599064 167.751547,33.7570128 C167.251259,36.5858638 164.747068,37.7230766 162.231882,37.7230766 C160.961003,37.7230766 159.224654,37.5108213 158.112292,37.0616085" id="Fill-47" fill="#FFFFFF" sketch:type="MSShapeGroup"></path>
                <path d="M178.366593,5.57210405 C178.467367,4.99570452 178.081089,4.44687056 177.503816,4.34624909 C176.926544,4.24562762 176.376879,4.63132194 176.276105,5.20772148 L174.643296,14.5469555 C174.542522,15.1233551 174.9288,15.672189 175.506073,15.7728105 C176.083345,15.873432 176.63301,15.4877376 176.733784,14.9113381 L178.366593,5.57210405 Z" id="Stroke-55" fill="#A2163B" sketch:type="MSShapeGroup"></path>
                <path d="M185.139512,19.4689523 C185.690201,19.2689051 185.974207,18.660988 185.773857,18.1111314 C185.573506,17.5612749 184.964669,17.2776984 184.41398,17.4777456 L181.187761,18.6497243 C180.637072,18.8497715 180.353066,19.4576886 180.553416,20.0075452 C180.753766,20.5574017 181.362604,20.8409782 181.913293,20.640931 L185.139512,19.4689523 Z" id="Stroke-73" fill="#E48B21" sketch:type="MSShapeGroup"></path>
                <path d="M182.350428,4.12231899 C182.45224,3.54610135 182.066951,2.99657464 181.489861,2.89491673 C180.91277,2.79325882 180.362412,3.17796549 180.2606,3.75418314 L179.664102,7.13014058 C179.56229,7.70635823 179.947579,8.25588494 180.52467,8.35754285 C181.10176,8.45920076 181.652119,8.07449408 181.753931,7.49827644 L182.350428,4.12231899 Z" id="Stroke-57" fill="#008BB9" sketch:type="MSShapeGroup"></path>
                <path d="M180.561943,14.2500084 C180.663755,13.6737907 180.278466,13.124264 179.701376,13.0226061 C179.124285,12.9209482 178.573926,13.3056549 178.472115,13.8818725 L177.875617,17.2578299 C177.773805,17.8340476 178.159094,18.3835743 178.736184,18.4852322 C179.313275,18.5868901 179.863634,18.2021834 179.965445,17.6259658 L180.561943,14.2500084 Z" id="Stroke-59" fill="#560604" sketch:type="MSShapeGroup"></path>
                <path d="M186.479001,5.78058362 C186.927921,6.15666935 187.597183,6.09817537 187.973838,5.64993366 C188.350493,5.20169195 188.29191,4.53344253 187.84299,4.1573568 L185.213269,1.95429297 C184.764349,1.57820725 184.095087,1.63670123 183.718432,2.08494294 C183.341777,2.53318465 183.400359,3.20143407 183.84928,3.57751979 L186.479001,5.78058362 Z" id="Stroke-61" fill="#4F9F4F" sketch:type="MSShapeGroup"></path>
                <path d="M194.368805,12.3909645 C194.817725,12.7670502 195.486987,12.7085562 195.863642,12.2603145 C196.240297,11.8120728 196.181715,11.1438234 195.732794,10.7677377 L193.103073,8.56467382 C192.654153,8.1885881 191.984891,8.24708208 191.608236,8.69532379 C191.231581,9.1435655 191.290163,9.81181492 191.739084,10.1879006 L194.368805,12.3909645 Z" id="Stroke-63" fill="#0E6D65" sketch:type="MSShapeGroup"></path>
                <path d="M194.817801,15.9516438 C195.36849,15.7515966 195.652496,15.1436794 195.452146,14.5938229 C195.251796,14.0439664 194.642958,13.7603899 194.092269,13.9604371 L190.86605,15.1324158 C190.315361,15.332463 190.031355,15.9403801 190.231705,16.4902367 C190.432055,17.0400932 191.040893,17.3236697 191.591582,17.1236225 L194.817801,15.9516438 Z" id="Stroke-65" fill="#008BB9" sketch:type="MSShapeGroup"></path>
                <path d="M184.690516,15.908273 C185.139436,16.2843587 185.808697,16.2258647 186.185353,15.777623 C186.562008,15.3293813 186.503425,14.6611319 186.054505,14.2850462 L183.424784,12.0819823 C182.975863,11.7058966 182.306602,11.7643906 181.929947,12.2126323 C181.553292,12.660874 181.611874,13.3291234 182.060795,13.7052092 L184.690516,15.908273 Z" id="Stroke-67" fill="#91BEAF" sketch:type="MSShapeGroup"></path>
                <path d="M190.240232,10.7326998 C190.342044,10.1564822 189.956755,9.60695549 189.379665,9.50529758 C188.802575,9.40363967 188.252216,9.78834634 188.150404,10.364564 L187.553906,13.7405214 C187.452094,14.3167391 187.837384,14.8662658 188.414474,14.9679237 C188.991564,15.0695816 189.541923,14.6848749 189.643735,14.1086573 L190.240232,10.7326998 Z" id="Stroke-69" fill="#4A625A" sketch:type="MSShapeGroup"></path>
                <path d="M186.927997,9.34126291 C187.478686,9.1412157 187.762692,8.5332986 187.562342,7.98344206 C187.361992,7.43358552 186.753154,7.15000902 186.202465,7.35005623 L182.976246,8.52203496 C182.425557,8.72208217 182.141551,9.32999927 182.341901,9.87985582 C182.542251,10.4297124 183.151089,10.7132888 183.701778,10.5132416 L186.927997,9.34126291 Z" id="Stroke-71" fill="#B9BC63" sketch:type="MSShapeGroup"></path>
                <path d="M195.110966,8.17493046 C195.559874,8.55103017 196.229138,8.49255704 196.605807,8.04432706 C196.982476,7.59609709 196.923914,6.92784584 196.475006,6.55174613 L189.243731,0.4933206 C188.794822,0.117220891 188.125559,0.175694026 187.74889,0.623924002 C187.372221,1.07215398 187.430782,1.74040522 187.879691,2.11650493 L195.110966,8.17493046 Z" id="Stroke-49" fill="#649791" sketch:type="MSShapeGroup"></path>
                <path d="M184.417844,21.3937417 C183.866383,21.5916578 183.580021,22.198472 183.778237,22.7490992 C183.976453,23.2997264 184.584186,23.5856553 185.135647,23.3877392 L194.062954,20.1837817 C194.614415,19.9858656 194.900777,19.3790514 194.702561,18.8284242 C194.504345,18.277797 193.896612,17.9918681 193.345151,18.1897842 L184.417844,21.3937417 Z" id="Stroke-51" fill="#F0C500" sketch:type="MSShapeGroup"></path>
            </g>
        </g>
    </g>
</svg>