<?xml version="1.0" encoding="UTF-8" standalone="no"?>
<svg width="48px" height="64px" viewBox="0 0 48 64" version="1.1" xmlns="http://www.w3.org/2000/svg" xmlns:xlink="http://www.w3.org/1999/xlink" xmlns:sketch="http://www.bohemiancoding.com/sketch/ns">
    <!-- Generator: Sketch 3.4.4 (17249) - http://www.bohemiancoding.com/sketch -->
    <title>jira</title>
    <desc>Created with Sketch.</desc>
    <defs></defs>
    <g id="Page-34" stroke="none" stroke-width="1" fill="none" fill-rule="evenodd" sketch:type="MSPage">
        <g id="Index" sketch:type="MSArtboardGroup" transform="translate(-386.000000, -556.000000)" fill="#003366">
            <g id="jira" sketch:type="MSLayerGroup" transform="translate(386.000000, 556.000000)">
                <path d="M32,43 C40.2523757,53.1322118 39.6205515,64 40,64 L29,64 C29.9447439,60.0442775 28.3100533,54.3202222 14,40 C-0.456050662,26.1356571 0.0016385878,16.455577 0,16 C-0.00141147479,14.0875848 2.06017146,15.3211857 2,15 C5.88298662,18.3895582 11.3773904,18.3923922 11,18 C13.0530634,25.6384837 22.6581799,34.6167265 24,36 C26.3789811,33.8951035 35.0395012,25.3891161 37,19 C36.6223097,18.5434643 42.1167107,18.4652643 46,15 C45.9395211,15.3967973 48.0013937,14.0874431 48,16 C47.9983645,16.4557282 48.4557527,26.4376689 34,41 C33.2399524,41.345883 32.4506863,42.1336061 32,43 L32,43 Z M22,54 C20.1114177,51.1295856 17.5923737,48.3323825 14,45 C7.46469604,54.5566001 8.01045299,64 8,64 L19,64 C18.1818773,61.5711451 18.5728155,58.4980579 22,54 L22,54 Z M19,19 L29,19 C28.9446752,19.0056534 30.2730449,18.8217168 30,21 C29.4884662,23.0131179 24.0000045,28 24,28 C24.0000045,28 19.9870771,24.3336296 18,21 C18.1998653,20.8897519 17.4781003,19.0056534 19,19 L19,19 Z M42,9 C42,10.9853182 39.9853204,13 38,13 C35.0149806,13 33,10.9853182 33,9 C33,6.01467241 35.0149806,4 38,4 C39.9853204,4 42,6.01467241 42,9 L42,9 Z M15,9 C15,10.9853182 12.9853235,13 11,13 C8.01497935,13 6,10.9853182 6,9 C6,6.01467241 8.01497935,4 11,4 C12.9853235,4 15,6.01467241 15,9 L15,9 Z M29,5 C29,6.98531818 26.9853242,9 25,9 C22.0149805,9 20,6.98531818 20,5 C20,2.01467241 22.0149805,0 25,0 C26.9853242,0 29,2.01467241 29,5 L29,5 Z" id="path3962" sketch:type="MSShapeGroup"></path>
            </g>
        </g>
    </g>
</svg>