<?xml version="1.0" encoding="UTF-8" standalone="no"?>
<svg width="102px" height="40px" viewBox="0 0 102 40" version="1.1" xmlns="http://www.w3.org/2000/svg" xmlns:xlink="http://www.w3.org/1999/xlink" xmlns:sketch="http://www.bohemiancoding.com/sketch/ns">
    <!-- Generator: Sketch 3.3.3 (12072) - http://www.bohemiancoding.com/sketch -->
    <title>Group Copy 2</title>
    <desc>Created with Sketch.</desc>
    <defs></defs>
    <g id="Login" stroke="none" stroke-width="1" fill="none" fill-rule="evenodd" sketch:type="MSPage">
        <g id="End" sketch:type="MSArtboardGroup" transform="translate(-958.000000, -1599.000000)" fill="#003366">
            <g id="Group-Copy-2" sketch:type="MSLayerGroup" transform="translate(958.000000, 1599.000000)">
                <path d="M51.5034123,37.8542535 L45.5132036,37.8542535 L45.5132036,9.54472676 L51.5034123,9.54472676 L51.5034123,37.8542535 L51.5034123,37.8542535 Z" id="path3938" sketch:type="MSShapeGroup"></path>
                <path d="M61.4640391,14.8952169 L68.4317493,14.8952169 C70.1683585,14.8952169 71.1162653,15.8571944 71.1162653,17.5013239 L71.1162653,20.0610141 C71.1162653,21.7050704 70.1683585,23.6107042 68.4317493,23.6107042 L61.4640391,23.6107042 L61.4640391,14.8952169 L61.4640391,14.8952169 Z M73.1226278,37.9293521 L79.6642936,37.9293521 L72.7461464,28.1649577 C75.0073624,27.3245634 76.4092538,24.8115493 76.4092538,22.2379155 L76.4092538,15.0231493 C76.4092538,11.7722704 74.2402548,9.60350986 70.9884779,9.60350986 L61.7753476,9.60350986 L55.5482533,9.60350986 L55.5482533,37.9293521 L61.4640391,37.9293521 L61.4640391,28.5912113 L67.0933909,28.5912113 L73.1226278,37.9293521 L73.1226278,37.9293521 Z" id="path3950" sketch:type="MSShapeGroup"></path>
                <path d="M101.78487,37.8542535 L93.3780696,9.54473239 L91.1987185,9.54473239 L87.4624585,9.54473239 L85.2829326,9.54473239 L76.8761264,37.8542535 L82.7920982,37.8542535 L89.3306814,15.8261915 L92.6358308,26.9659718 L89.3306814,26.9659718 L87.0338894,32.0471549 L94.113777,32.0471549 L95.8690899,37.8542535 L101.78487,37.8542535 L101.78487,37.8542535 Z" id="path3954" sketch:type="MSShapeGroup"></path>
                <path d="M41.1566816,31.859493 L41.1566816,9.54469296 L35.3479957,9.54469296 L35.3479957,30.5442254 C35.3479957,33.8555493 33.8014284,34.0968451 33.4020837,34.252169 C32.673997,34.5353239 31.44201,34.7031549 31.44201,34.7031549 L32.8348262,39.7331831 C42.1918954,39.4847324 41.1566816,31.859493 41.1566816,31.859493" id="path3958" sketch:type="MSShapeGroup"></path>
                <path d="M0.360151856,9.68135775 C0.360151856,9.68135775 0.0876878785,15.4543268 8.65005872,23.8585915 C17.2122481,32.2629296 18.185385,35.6766197 17.7183298,38.0357183 L23.9454265,38.0357183 C23.9454265,38.0357183 24.5114109,28.2828732 14.8593656,21.4348732 C14.8593656,21.4348732 8.21495151,15.5270986 7.13217587,10.8364282 C7.13217587,10.8364282 3.86133849,10.834738 1.58560352,9.0048338 C1.58560352,9.0048338 0.358336144,8.26914366 0.360151856,9.68135775" id="path3962" sketch:type="MSShapeGroup"></path>
                <path d="M13.6139828,23.0157746 C15.3333551,24.235662 16.7230837,25.5487887 17.8550521,26.8827606 C18.6807934,26.0023099 19.6049196,25.0573521 20.6428586,24.0387606 C29.2050519,15.6344394 28.9327672,9.68144789 28.9327672,9.68144789 C28.9345705,8.26905915 27.7071307,9.04992676 27.7071307,9.04992676 C25.4313985,10.8798873 22.1605628,10.9265239 22.1605628,10.9265239 C21.0779664,15.6171944 14.4333708,21.6149859 14.4333708,21.6149859 C13.983561,21.9341972 13.5629755,22.2617465 13.1563669,22.5931268 C13.4442599,22.8644507 13.6139828,23.0157746 13.6139828,23.0157746" id="path3966" sketch:type="MSShapeGroup"></path>
                <path d="M13.5318982,32.1339718 C12.4269778,30.7056901 10.9532041,29.0337465 9.00366285,27.0419155 C5.02797786,32.7540845 5.34727449,38.3985915 5.34727449,38.3985915 L11.5743711,38.3985915 C11.2980948,36.9468169 11.5268143,35.1099718 13.5318982,32.1339718" id="path3970" sketch:type="MSShapeGroup"></path>
                <path d="M11.5103478,11.3594423 L17.6802647,11.3594423 C17.6802647,11.3594423 18.4864017,11.2460225 18.2898144,12.3130704 C18.0102707,13.8305408 14.6795323,16.9055718 14.6795323,16.9055718 C14.6795323,16.9055718 12.2442395,14.6448 11.1596487,12.5212225 C11.1596487,12.5212225 10.721637,11.3594423 11.5103478,11.3594423" id="path3974" sketch:type="MSShapeGroup"></path>
                <path d="M25.4700458,4.98037746 C25.4700458,6.46898592 24.2629254,7.67577465 22.7739063,7.67577465 C21.2848844,7.67577465 20.0775836,6.46898592 20.0775836,4.98037746 C20.0775836,3.4915831 21.2848844,2.2848 22.7739063,2.2848 C24.2629254,2.2848 25.4700458,3.4915831 25.4700458,4.98037746" id="path3978" sketch:type="MSShapeGroup"></path>
                <path d="M9.59081204,4.98037746 C9.59081204,6.46898592 8.38369389,7.67577465 6.89467253,7.67577465 C5.40565117,7.67577465 4.19835156,6.46898592 4.19835156,4.98037746 C4.19835156,3.4915831 5.40565117,2.2848 6.89467253,2.2848 C8.38369389,2.2848 9.59081204,3.4915831 9.59081204,4.98037746" id="path3982" sketch:type="MSShapeGroup"></path>
                <path d="M17.686073,2.80149296 C17.686073,4.29009577 16.4789554,5.49688451 14.9899341,5.49688451 C13.5009133,5.49688451 12.2936131,4.29009577 12.2936131,2.80149296 C12.2936131,1.31269296 13.5009133,0.105909859 14.9899341,0.105909859 C16.4789554,0.105909859 17.686073,1.31269296 17.686073,2.80149296" id="path3986" sketch:type="MSShapeGroup"></path>
            </g>
        </g>
    </g>
</svg>