<?xml version="1.0" encoding="UTF-8" standalone="no"?>
<svg width="76px" height="30px" viewBox="0 0 76 30" version="1.1" xmlns="http://www.w3.org/2000/svg" xmlns:xlink="http://www.w3.org/1999/xlink" xmlns:sketch="http://www.bohemiancoding.com/sketch/ns">
    <!-- Generator: Sketch 3.2.2 (9983) - http://www.bohemiancoding.com/sketch -->
    <title>jira-003366</title>
    <desc>Created with Sketch.</desc>
    <defs></defs>
    <g id="Choose-source" stroke="none" stroke-width="1" fill="none" fill-rule="evenodd" sketch:type="MSPage">
        <g id="Add-6" sketch:type="MSArtboardGroup" transform="translate(-523.000000, -609.000000)" fill="#FFFFFF">
            <g id="jira-003366" sketch:type="MSLayerGroup" transform="translate(523.000000, 609.000000)">
                <path d="M38.0094486,27.917512 L33.5886827,27.917512 L33.5886827,7.03923599 L38.0094486,7.03923599 L38.0094486,27.917512 L38.0094486,27.917512 Z" id="path3938" sketch:type="MSShapeGroup"></path>
                <path d="M45.3603778,10.9852225 L50.5025384,10.9852225 C51.7841537,10.9852225 52.4837076,11.6946808 52.4837076,12.9072264 L52.4837076,14.7949979 C52.4837076,16.0074894 51.7841537,17.4128944 50.5025384,17.4128944 L45.3603778,17.4128944 L45.3603778,10.9852225 L45.3603778,10.9852225 Z M53.9644005,27.9728972 L58.7921409,27.9728972 L53.6865577,20.7716563 C55.355332,20.1518655 56.389926,18.2985176 56.389926,16.4004627 L56.389926,11.0795726 C56.389926,8.68204944 54.7892077,7.08258852 52.3894007,7.08258852 L45.590123,7.08258852 L40.9945358,7.08258852 L40.9945358,27.9728972 L45.3603778,27.9728972 L45.3603778,21.0860183 L49.5148318,21.0860183 L53.9644005,27.9728972 L53.9644005,27.9728972 Z" id="path3950" sketch:type="MSShapeGroup"></path>
                <path d="M75.1170965,27.917512 L68.9128891,7.03924014 L67.3045309,7.03924014 L64.5471761,7.03924014 L62.9386889,7.03924014 L56.7344773,27.917512 L61.1004565,27.917512 L65.9259221,11.6718163 L68.3651179,19.8874042 L65.9259221,19.8874042 L64.2308927,23.6347768 L69.4558402,23.6347768 L70.7512587,27.917512 L75.1170965,27.917512 L75.1170965,27.917512 Z" id="path3954" sketch:type="MSShapeGroup"></path>
                <path d="M30.3735754,23.4963761 L30.3735754,7.03921106 L26.0867731,7.03921106 L26.0867731,22.5263662 C26.0867731,24.9684676 24.9454084,25.1464232 24.6506926,25.2609746 C24.1133656,25.4698014 23.2041609,25.5935768 23.2041609,25.5935768 L24.2320573,29.3032225 C31.1375617,29.1199901 30.3735754,23.4963761 30.3735754,23.4963761" id="path3958" sketch:type="MSShapeGroup"></path>
                <path d="M0.265791583,7.14000134 C0.265791583,7.14000134 0.0647135357,11.397566 6.38373164,17.5957113 C12.7026158,23.7939106 13.4207896,26.311507 13.0761035,28.0513423 L17.6716923,28.0513423 C17.6716923,28.0513423 18.0893881,20.858619 10.9661917,15.808219 C10.9661917,15.808219 6.06262311,11.4512352 5.26353615,7.99186577 C5.26353615,7.99186577 2.84966258,7.9906193 1.17017326,6.64106493 C1.17017326,6.64106493 0.264451589,6.09849345 0.265791583,7.14000134" id="path3962" sketch:type="MSShapeGroup"></path>
                <path d="M10.0471009,16.9741338 C11.3159953,17.8738007 12.3416132,18.8422317 13.1770043,19.8260359 C13.7864003,19.1767035 14.4684041,18.4797972 15.2344017,17.7285859 C21.5532888,11.5303991 21.352343,7.14006782 21.352343,7.14006782 C21.3536739,6.09843113 20.447825,6.67432099 20.447825,6.67432099 C18.7683377,8.0239169 16.3544654,8.05831141 16.3544654,8.05831141 C15.5555107,11.5176808 10.6518081,15.9410521 10.6518081,15.9410521 C10.3198491,16.1764704 10.0094576,16.418038 9.70938096,16.662431 C9.92184563,16.8625324 10.0471009,16.9741338 10.0471009,16.9741338" id="path3966" sketch:type="MSShapeGroup"></path>
                <path d="M9.98652256,23.6988042 C9.17109284,22.6454465 8.08344979,21.412388 6.64469101,19.9434127 C3.71064086,24.1561373 3.94628134,28.3189613 3.94628134,28.3189613 L8.54187022,28.3189613 C8.33797869,27.2482775 8.50677337,25.8936042 9.98652256,23.6988042" id="path3970" sketch:type="MSShapeGroup"></path>
                <path d="M8.4946211,8.37758866 L13.0480114,8.37758866 C13.0480114,8.37758866 13.6429394,8.29394162 13.4978583,9.08088944 C13.2915555,10.2000239 10.833475,12.4678592 10.833475,12.4678592 C10.833475,12.4678592 9.03623218,10.80054 8.23580564,9.23440162 C8.23580564,9.23440162 7.91255362,8.37758866 8.4946211,8.37758866" id="path3974" sketch:type="MSShapeGroup"></path>
                <path d="M18.7968594,3.67302838 C18.7968594,4.77087711 17.9060061,5.6608838 16.8071121,5.6608838 C15.7082159,5.6608838 14.8172296,4.77087711 14.8172296,3.67302838 C14.8172296,2.57504254 15.7082159,1.68504 16.8071121,1.68504 C17.9060061,1.68504 18.7968594,2.57504254 18.7968594,3.67302838" id="path3978" sketch:type="MSShapeGroup"></path>
                <path d="M7.07800632,3.67302838 C7.07800632,4.77087711 6.18715475,5.6608838 5.088259,5.6608838 C3.98936325,5.6608838 3.09837777,4.77087711 3.09837777,3.67302838 C3.09837777,2.57504254 3.98936325,1.68504 5.088259,1.68504 C6.18715475,1.68504 7.07800632,2.57504254 7.07800632,3.67302838" id="path3982" sketch:type="MSShapeGroup"></path>
                <path d="M13.052298,2.06610106 C13.052298,3.16394563 12.1614468,4.05395232 11.0625511,4.05395232 C9.96365575,4.05395232 9.07266986,3.16394563 9.07266986,2.06610106 C9.07266986,0.968111056 9.96365575,0.0781085211 11.0625511,0.0781085211 C12.1614468,0.0781085211 13.052298,0.968111056 13.052298,2.06610106" id="path3986" sketch:type="MSShapeGroup"></path>
            </g>
        </g>
    </g>
</svg>