<?xml version="1.0" encoding="UTF-8" standalone="no"?>
<svg width="54px" height="54px" viewBox="0 0 54 54" version="1.1" xmlns="http://www.w3.org/2000/svg" xmlns:xlink="http://www.w3.org/1999/xlink" xmlns:sketch="http://www.bohemiancoding.com/sketch/ns">
    <!-- Generator: Sketch 3.4.4 (17249) - http://www.bohemiancoding.com/sketch -->
    <title>trello</title>
    <desc>Created with Sketch.</desc>
    <defs>
        <linearGradient x1="50%" y1="0%" x2="50%" y2="100%" id="linearGradient-1">
            <stop stop-color="#0091E6" offset="0%"></stop>
            <stop stop-color="#0079BF" offset="100%"></stop>
        </linearGradient>
    </defs>
    <g id="Page-34" stroke="none" stroke-width="1" fill="none" fill-rule="evenodd" sketch:type="MSPage">
        <g id="Index" sketch:type="MSArtboardGroup" transform="translate(-179.000000, -561.000000)" fill="url(#linearGradient-1)">
            <g id="trello" sketch:type="MSLayerGroup" transform="translate(179.000000, 561.000000)">
                <path d="M7,-3.55271368e-15 C3.02529476,-3.55271368e-15 3.55271368e-15,3.01898391 3.55271368e-15,7 L3.55271368e-15,47 C3.55271368e-15,50.9747053 3.018984,54 7,54 L47,54 C50.9747052,54 54,50.9810161 54,47 L54,7 C54,3.0252947 50.9810161,-3.55271368e-15 47,-3.55271368e-15 L7,-3.55271368e-15 L7,-3.55271368e-15 Z M33.1875,7 C31.4991772,7 30,8.46517955 30,10 L30,28 C30,29.5340727 31.4937373,31 33.1875,31 L43.8125,31 C45.5008229,31 47,29.5348204 47,28 L47,10 C47,8.46592731 45.5062628,7 43.8125,7 L33.1875,7 L33.1875,7 Z M10.1875,7 C8.49917714,7 7,8.43908801 7,10 L7,41 C7,42.5589024 8.49373722,44 10.1875,44 L20.8125,44 C22.5008229,44 24,42.560912 24,41 L24,10 C24,8.44109762 22.5062628,7 20.8125,7 L10.1875,7 L10.1875,7 Z" id="Board" sketch:type="MSShapeGroup"></path>
            </g>
        </g>
    </g>
</svg>