<?xml version="1.0" encoding="UTF-8" standalone="no"?>
<svg width="100px" height="28px" viewBox="0 0 100 28" version="1.1" xmlns="http://www.w3.org/2000/svg" xmlns:xlink="http://www.w3.org/1999/xlink" xmlns:sketch="http://www.bohemiancoding.com/sketch/ns">
    <!-- Generator: Sketch 3.2.2 (9983) - http://www.bohemiancoding.com/sketch -->
    <title>trello-0076C0</title>
    <desc>Created with Sketch.</desc>
    <defs></defs>
    <g id="Choose-source" stroke="none" stroke-width="1" fill="none" fill-rule="evenodd" sketch:type="MSPage">
        <g id="Add-6" sketch:type="MSArtboardGroup" transform="translate(-815.000000, -460.000000)" fill="#FFFFFF">
            <g id="trello-0076C0" sketch:type="MSLayerGroup" transform="translate(815.000000, 460.000000)">
                <path d="M80.3615453,21.0105323 C78.8425838,21.6227232 77.6439409,23.7377508 75.8209401,24.9398588 C75.707898,25.0144 75.5948563,25.0516706 75.5194951,25.0516706 C75.3687725,25.0516706 75.1803692,24.9025882 75.1803692,24.2317176 C75.1803692,21.9209412 75.9339822,20.8028235 76.574553,19.1629176 C78.7977109,13.4605176 82.6034559,8.5780706 85.9947134,3.24837647 C86.2584781,2.8384 86.4092004,2.39115294 86.4092004,1.9066353 C86.4092004,1.49665882 86.2584781,1.16122353 86.0700749,0.75124706 C85.9193522,0.415811764 85.2411008,0.117647059 84.4874879,0.117647059 C84.0730008,0.117647059 83.6961943,0.154917647 83.2063462,0.154917647 C81.4353559,0.154917647 81.0585494,2.72658824 80.6440623,3.39745882 C77.8180142,8.13082352 74.5774789,13.9823059 72.9195308,18.1193412 C72.5559628,19.0467605 72.1632425,19.9741798 71.8647381,20.926004 C70.2263498,21.3952737 68.9989425,23.6738467 67.0790312,24.9398588 C66.9659891,25.0144 66.8529474,25.0516706 66.7775858,25.0516706 C66.6268636,25.0516706 66.4384603,24.9025882 66.4384603,24.2317176 C66.4384603,21.9209412 67.1920729,20.8028235 67.8326441,19.1629176 C70.055802,13.4605176 73.8615466,8.5780706 77.2528045,3.24837647 C77.5165688,2.8384 77.6672915,2.39115294 77.6672915,1.9066353 C77.6672915,1.49665882 77.5165688,1.16122353 77.3281656,0.75124706 C77.1774433,0.415811764 76.4991915,0.117647059 75.7455789,0.117647059 C75.3310919,0.117647059 74.9542854,0.154917647 74.4644368,0.154917647 C72.693447,0.154917647 72.3166405,2.72658824 71.9021534,3.39745882 C69.0761053,8.13082352 65.83557,13.9823059 64.1776215,18.1193412 C64.0458154,18.4555638 63.9101773,18.7917864 63.7765862,19.129172 L63.7765862,19.129172 C63.7353332,19.1509668 63.6932061,19.1746016 63.6500927,19.2001882 C61.7283798,20.3183059 60.1081121,22.293647 57.7719126,23.6353882 C57.3197445,23.8962824 55.9255611,24.8653176 54.7951417,24.8653176 C54.5313773,24.8653176 54.3052935,24.7907765 54.0792093,24.6789647 C53.7400838,24.5298824 53.4009579,23.8217412 53.4009579,23.5981176 C53.4009579,23.4117647 53.4386385,23.3744941 53.8154449,23.1508706 C57.1313417,21.1755294 59.8443478,18.3429647 62.1805478,15.5104 C63.0472024,14.4668235 64.1776215,12.4169412 64.1776215,10.9261176 C64.1776215,9.95708236 63.838496,8.83896472 62.670396,8.42898824 C61.8414219,8.13082352 60.8994057,7.98174116 60.1457927,7.98174116 C58.148719,7.98174116 56.6791737,8.87623528 55.8501996,9.73345884 C55.0062583,10.6246188 54.1899308,11.5396782 53.431515,12.4869041 C52.6390911,11.8102176 51.5213858,11.522447 50.461868,11.522447 C49.2184065,11.522447 46.8822069,13.0505412 45.6764263,13.9450353 C45.4880231,14.0941176 45.374981,14.1686588 45.2996198,14.1686588 C45.2619393,14.1686588 45.2242587,14.1313882 45.2242587,14.056847 C45.2242587,14.0195765 45.2996198,13.6841412 45.2996198,13.0878118 C45.2996198,12.5660235 45.1865777,11.895153 44.6967296,11.0752 C44.5836874,10.888847 43.905436,10.4788706 43.0764619,10.4788706 C42.0590846,10.4788706 41.1170684,10.9633882 41.1170684,11.4851765 C41.1170684,11.8578824 41.4561943,12.0069647 41.4561943,12.3424 C41.4561943,12.528753 41.3054717,13.3859765 41.0793879,14.2059294 C40.438817,16.591247 39.6475235,18.9392941 38.8185494,21.2873412 C38.3663818,22.5918118 36.8591559,23.7472 36.8591559,25.1634824 C36.8591559,25.6107294 37.1606012,26.2070588 37.5750883,26.6543059 C38.2533397,27.3997176 38.6678267,27.6606118 39.270717,27.6606118 C39.5344814,27.6606118 39.8359267,27.5860706 40.0996911,27.362447 C40.6649008,26.8779294 40.9663462,26.3934118 41.1170684,25.7225412 C42.0967652,21.3246118 44.9228134,18.3429647 48.0503069,16.3676235 C49.1053648,15.696753 50.5372291,14.9886118 50.7256324,14.9886118 C50.9188215,14.9886118 51.2209644,15.0767853 51.5254174,15.162719 L51.5254174,15.162719 C50.6511656,16.5731728 49.9428,18.0606336 49.4821713,19.6474353 C49.3314486,20.1692235 49.2560874,20.6537412 49.2560874,21.1755294 C49.2560874,22.032753 49.4444907,22.927247 49.7459356,23.7844706 C50.1604227,24.9771294 50.8386741,26.0207059 51.7806903,26.5052235 C53.514,27.3997176 54.7574611,27.8842353 55.8878802,27.8842353 C56.5284514,27.8842353 57.0182996,27.7724235 57.5458287,27.4742588 C60.0224595,26.0882561 61.5408907,25.0367612 62.6373251,24.1028055 C62.6673887,25.0497556 62.8561069,25.5743899 63.5370506,26.2816 C64.2153024,26.9897412 65.2703603,27.6233412 66.6645441,27.9215059 C66.8906279,27.9587765 67.1167117,27.996047 67.3427955,27.996047 C68.9379308,27.996047 70.4730421,26.7136401 71.6567623,25.4423587 L71.6567623,25.4423587 C71.7938146,25.719775 71.9929769,25.9845858 72.2789599,26.2816 C72.9572113,26.9897412 74.0122692,27.6233412 75.406453,27.9215059 C75.6325368,27.9587765 75.8586206,27.996047 76.0847045,27.996047 C77.9532466,27.996047 79.7394251,26.2363553 80.9749049,24.7961583 C81.3866709,25.6385703 82.5373413,26.4714531 83.9222781,27.1388235 C84.2990846,27.3251765 84.7512522,27.4369882 85.1657393,27.4369882 C86.7860069,27.4369882 87.9541069,26.1325176 88.8584425,25.1634824 C91.1946421,22.6290824 92.4757838,19.498353 93.4554806,15.5476706 C93.5308421,15.2495059 93.6438838,15.1376941 93.7946065,15.1376941 C94.171413,15.1376941 94.6612611,15.1376941 95.1887903,15.063153 C96.2061676,14.9140706 96.9974611,14.5786353 97.9394769,14.429553 C98.5046866,14.3177412 98.4293255,14.1313882 98.9568547,13.9450353 C99.3336607,13.795953 99.6351061,13.6468706 99.6351061,13.2741647 C99.6351061,12.6405647 98.4670061,11.9696941 96.6960158,11.9696941 C95.301832,11.9696941 94.4728579,12.0815059 93.9076486,12.0815059 C93.0409935,12.0815059 92.8149097,11.8206118 92.2497,10.3670588 C92.2497,10.3670588 92.8149097,11.8206118 92.2497,10.3670588 C92.1366583,10.0688941 92.0236162,9.91981176 91.6844907,9.62164704 C90.8931972,8.95077648 89.9135004,8.72715296 89.1222069,8.72715296 C87.2381749,8.72715296 85.6179073,10.627953 84.4874879,12.2305882 C84.2237235,12.6032941 83.846917,12.9014588 83.5831522,13.3114353 C82.0309652,15.6143791 80.5448312,18.2113282 80.3615453,21.0105323 L80.3615453,21.0105323 L80.3615453,21.0105323 Z M32.1867563,8.31717648 C33.1287724,8.31717648 33.6563014,8.24263528 33.7693433,8.24263528 C33.8823852,8.24263528 33.9577465,8.27990588 33.9577465,8.39171764 C33.9577465,8.46625884 33.9200659,8.5780706 33.6563014,9.1371294 C31.3577822,14.0195765 29.7751952,18.9765647 28.3810115,24.4553412 C28.3433308,24.6044235 28.2302889,25.1634824 28.2302889,25.7225412 C28.2302889,26.2443294 28.3810115,26.8033882 28.9085404,27.101553 C29.9259178,27.6978824 30.7548919,27.9587765 31.3201015,27.9587765 C32.1490757,27.9587765 32.5635628,27.4369882 32.5635628,26.5797647 C32.5635628,25.834353 32.6012434,25.0516706 32.7142853,24.4553412 C33.7693433,18.9765647 35.3519304,14.690447 37.8011721,10.2179765 C38.9692721,8.09355296 39.1199943,7.98174116 39.1199943,7.79538824 C39.1199943,7.72084704 39.0823138,7.60903528 39.0069526,7.49722352 C40.5141781,7.16178824 42.322849,6.93816472 43.9807972,6.93816472 C44.1692004,6.93816472 44.9228134,7.19905884 45.0358555,7.3108706 C45.2996198,7.57176472 45.5633842,7.83265884 46.0155522,7.83265884 C46.3923583,7.83265884 47.0329296,7.57176472 47.2590134,7.42268236 C47.7865421,7.04997648 48.0503069,6.64 48.0503069,5.9691294 C48.0503069,5.3355294 45.6764263,3.7701647 44.0184781,3.7701647 C41.9837235,3.7701647 40.1373717,4.03105884 38.4040623,4.36649412 C37.6504494,4.51557648 34.9374433,4.92555296 32.9780498,4.92555296 C31.0940177,4.92555296 31.2070596,4.66465884 30.4157662,4.66465884 C29.9635984,4.66465884 29.7375146,4.88828236 29.5491114,5.07463528 C29.3607082,5.26098824 29.2476662,6.0064 29.2476662,6.6772706 C29.2476662,7.01270588 29.2476662,7.2736 29.4360694,7.49722352 C30.0012791,8.16809412 31.0940177,8.31717648 32.1867563,8.31717648 C32.1867563,8.31717648 31.0940177,8.31717648 32.1867563,8.31717648 L32.1867563,8.31717648 Z M60.1081121,11.3360941 C60.1081121,11.6715294 59.9950704,11.895153 59.5429024,12.6032941 C59.0907348,13.3114353 59.2791381,13.3114353 58.7139283,14.056847 C57.6211899,15.5104 56.2646866,16.963953 54.4936968,18.5665882 C54.0038482,19.0138353 53.928487,19.0138353 53.8531255,19.0138353 C53.8154449,19.0138353 53.7400838,18.9765647 53.7400838,18.9020235 C53.7400838,18.7902118 53.7777644,18.6411294 54.1545709,17.858447 C55.3226709,15.4358588 56.7545352,13.8332235 58.3371223,12.2678588 C59.2037769,11.4106353 59.7313057,11.1124706 59.9197089,11.1124706 C60.032751,11.1124706 60.1081121,11.1497412 60.1081121,11.3360941 C60.1081121,11.3360941 60.1081121,11.1497412 60.1081121,11.3360941 L60.1081121,11.3360941 Z M89.0845263,12.3051294 C89.1222069,12.3051294 89.1598874,12.3424 89.197568,12.4169412 C89.2352486,12.528753 89.3106101,12.6405647 89.4990134,12.789647 C89.6497356,12.9014588 89.6497356,13.423247 89.6497356,13.8332235 C89.6497356,17.4484706 87.5773004,20.4301176 85.5425457,23.4490353 C85.0903781,24.1199059 84.8266138,24.2317176 84.6005296,24.2317176 C84.4121267,24.2317176 84.1106814,23.7472 83.9976393,23.4490353 C83.846917,23.0390588 83.8092364,22.5545412 83.8092364,22.3681882 C83.8092364,19.4610824 86.5976036,15.1376941 88.4439551,12.7523765 C88.7454004,12.3424 88.9714842,12.3051294 89.0845263,12.3051294 C89.0845263,12.3051294 88.9714842,12.3051294 89.0845263,12.3051294 L89.0845263,12.3051294 Z" id="Type" sketch:type="MSShapeGroup"></path>
                <path d="M3.25575551,4.23529412 C1.61176915,4.23529412 0.279054858,5.55075552 0.279054858,7.17960124 L0.279054858,24.8203988 C0.279054858,26.4464947 1.60898911,27.7647059 3.25575551,27.7647059 L21.0906385,27.7647059 C22.7346249,27.7647059 24.0673391,26.4492445 24.0673391,24.8203988 L24.0673391,7.17960124 C24.0673391,5.55350532 22.7374049,4.23529412 21.0906385,4.23529412 L3.25575551,4.23529412 L3.25575551,4.23529412 Z M15.1485436,7.29411764 C14.359269,7.29411764 13.7194355,7.92615588 13.7194355,8.70653504 L13.7194355,16.2346414 C13.7194355,17.014698 14.3569473,17.6470588 15.1485436,17.6470588 L19.545754,17.6470588 C20.3350287,17.6470588 20.9748622,17.0150206 20.9748622,16.2346414 L20.9748622,8.70653504 C20.9748622,7.92647844 20.3373504,7.29411764 19.545754,7.29411764 L15.1485436,7.29411764 L15.1485436,7.29411764 Z M4.80064,7.29411764 C4.01136534,7.29411764 3.37153182,7.92557756 3.37153182,8.7064924 L3.37153182,22.117037 C3.37153182,22.89707 4.00904364,23.5294118 4.80064,23.5294118 L9.19785036,23.5294118 C9.98712502,23.5294118 10.6269585,22.8979518 10.6269585,22.117037 L10.6269585,8.7064924 C10.6269585,7.92645936 9.98944672,7.29411764 9.19785036,7.29411764 L4.80064,7.29411764 L4.80064,7.29411764 Z" id="Board" sketch:type="MSShapeGroup"></path>
            </g>
        </g>
    </g>
</svg>